G04*
G04 #@! TF.GenerationSoftware,Altium Limited,Altium Designer,23.2.1 (34)*
G04*
G04 Layer_Physical_Order=3*
G04 Layer_Color=128*
%FSLAX44Y44*%
%MOMM*%
G71*
G04*
G04 #@! TF.SameCoordinates,03237038-BA4C-483D-AFB1-32BADD2FC3D1*
G04*
G04*
G04 #@! TF.FilePolarity,Negative*
G04*
G01*
G75*
%ADD48C,1.3000*%
%ADD66C,0.5500*%
%ADD68C,1.0160*%
%ADD69C,2.3000*%
%ADD70C,1.1000*%
%ADD71C,1.2000*%
D48*
X388620Y238760D02*
D03*
D66*
X349250Y110490D02*
D03*
X337820Y97790D02*
D03*
X323850Y82550D02*
D03*
X287020Y53340D02*
D03*
X293983Y50555D02*
D03*
X246380Y59951D02*
D03*
X217170Y56550D02*
D03*
X269240Y60550D02*
D03*
X62230Y175260D02*
D03*
X118110Y179070D02*
D03*
X248650Y98222D02*
D03*
X163830Y68580D02*
D03*
X175260Y62230D02*
D03*
X121541Y143131D02*
D03*
X157215Y107457D02*
D03*
X104140Y201930D02*
D03*
X101600Y219710D02*
D03*
X227402Y112958D02*
D03*
X271780Y116840D02*
D03*
X300990Y102870D02*
D03*
X293370Y161290D02*
D03*
X86360Y184150D02*
D03*
X105410Y38100D02*
D03*
X223520Y229870D02*
D03*
X346710Y8890D02*
D03*
X124460Y53340D02*
D03*
X330200Y160020D02*
D03*
X228600Y165100D02*
D03*
X440690Y8890D02*
D03*
X330200Y35560D02*
D03*
X73660Y121250D02*
D03*
X62610Y137540D02*
D03*
X68382Y132750D02*
D03*
X74153Y137540D02*
D03*
X54610D02*
D03*
X57150Y123792D02*
D03*
X99060Y155610D02*
D03*
X133350Y157480D02*
D03*
X190012Y38770D02*
D03*
X112610Y91440D02*
D03*
X124110Y91636D02*
D03*
X117787Y123190D02*
D03*
X143510Y162560D02*
D03*
X100330Y142240D02*
D03*
X90170Y88900D02*
D03*
X304800Y194310D02*
D03*
X313690D02*
D03*
X129540Y72390D02*
D03*
X166370Y157480D02*
D03*
X153670Y124460D02*
D03*
X57150Y161290D02*
D03*
X31750Y163830D02*
D03*
Y87630D02*
D03*
X208590Y94614D02*
D03*
X205740Y114300D02*
D03*
X326390Y121920D02*
D03*
X302260Y93980D02*
D03*
X340360Y67310D02*
D03*
X313690Y161290D02*
D03*
X177800Y125730D02*
D03*
X177481Y105091D02*
D03*
X191770Y110490D02*
D03*
X210820Y134620D02*
D03*
X430530Y135890D02*
D03*
X421640Y144780D02*
D03*
X283210Y21590D02*
D03*
X254000Y22860D02*
D03*
X431800Y179070D02*
D03*
X386080Y213360D02*
D03*
X414020Y200660D02*
D03*
X434340Y214630D02*
D03*
X363220Y228600D02*
D03*
X97790Y60960D02*
D03*
X41910D02*
D03*
X69850Y25400D02*
D03*
X12700Y27940D02*
D03*
Y60960D02*
D03*
X44450Y181610D02*
D03*
X60960Y190500D02*
D03*
X21590Y189230D02*
D03*
Y210820D02*
D03*
X40640Y200660D02*
D03*
X39370Y220980D02*
D03*
X58420Y212090D02*
D03*
Y229870D02*
D03*
X73660Y67310D02*
D03*
X81280Y88900D02*
D03*
X87630Y34290D02*
D03*
X279963Y44180D02*
D03*
X192764Y97939D02*
D03*
X248920Y132080D02*
D03*
X349250Y77470D02*
D03*
X20320Y87630D02*
D03*
X10160D02*
D03*
X22860Y163830D02*
D03*
X10160D02*
D03*
X90170Y205740D02*
D03*
X176530Y179070D02*
D03*
X146050Y205740D02*
D03*
X142240Y196850D02*
D03*
X227330Y177800D02*
D03*
X255270Y185420D02*
D03*
X254000Y203200D02*
D03*
X260350Y167640D02*
D03*
X408940Y165100D02*
D03*
X367030Y182880D02*
D03*
X358140Y173990D02*
D03*
X370840Y200660D02*
D03*
X49530Y162560D02*
D03*
X335280Y123190D02*
D03*
X297180Y140970D02*
D03*
X198120Y187960D02*
D03*
Y195580D02*
D03*
X389890Y72390D02*
D03*
X387350Y21590D02*
D03*
Y59690D02*
D03*
X232410Y132080D02*
D03*
X212090Y163830D02*
D03*
D68*
X2540Y-1270D02*
X450850Y0D01*
X1270Y-1270D02*
X2540D01*
X1270D02*
Y251460D01*
X450850D01*
Y2540D02*
Y251460D01*
Y0D02*
Y2540D01*
D69*
X430530Y232410D02*
D03*
X21590D02*
D03*
D70*
X421640Y22860D02*
D03*
X408940Y22860D02*
D03*
Y35560D02*
D03*
X408940Y48260D02*
D03*
X408940Y60960D02*
D03*
X421640Y35560D02*
D03*
X421640Y48260D02*
D03*
X421640Y60960D02*
D03*
X421640Y73660D02*
D03*
X176530Y38100D02*
D03*
Y25400D02*
D03*
X163830D02*
D03*
X151130D02*
D03*
X138430D02*
D03*
X163830Y38100D02*
D03*
X151130D02*
D03*
X138430D02*
D03*
X125730D02*
D03*
D71*
X167640Y229870D02*
D03*
X193040D02*
D03*
X304800Y231140D02*
D03*
X279400D02*
D03*
M02*
