G04*
G04 #@! TF.GenerationSoftware,Altium Limited,Altium Designer,23.2.1 (34)*
G04*
G04 Layer_Physical_Order=4*
G04 Layer_Color=16711680*
%FSLAX44Y44*%
%MOMM*%
G71*
G04*
G04 #@! TF.SameCoordinates,03237038-BA4C-483D-AFB1-32BADD2FC3D1*
G04*
G04*
G04 #@! TF.FilePolarity,Positive*
G04*
G01*
G75*
%ADD11C,0.2000*%
%ADD14C,0.1500*%
%ADD61C,1.0000*%
%ADD62R,1.0000X1.0000*%
%ADD63R,1.0000X1.0000*%
%ADD64C,1.5000*%
%ADD65R,1.5000X1.5000*%
%ADD66C,0.5500*%
%ADD67C,1.2700*%
%ADD72R,0.5000X0.3500*%
G36*
X448811Y2540D02*
Y2033D01*
X4208Y774D01*
X3309Y1671D01*
Y99060D01*
X34290D01*
Y149860D01*
X3309D01*
Y249421D01*
X448811D01*
Y2540D01*
D02*
G37*
%LPC*%
G36*
X306051Y240640D02*
X303549D01*
X301133Y239993D01*
X298967Y238742D01*
X297198Y236973D01*
X295947Y234807D01*
X295300Y232391D01*
Y229889D01*
X295947Y227473D01*
X297198Y225307D01*
X298967Y223538D01*
X301133Y222287D01*
X303549Y221640D01*
X306051D01*
X308467Y222287D01*
X310633Y223538D01*
X312402Y225307D01*
X313653Y227473D01*
X314300Y229889D01*
Y232391D01*
X313653Y234807D01*
X312402Y236973D01*
X310633Y238742D01*
X308467Y239993D01*
X306051Y240640D01*
D02*
G37*
G36*
X202540Y239370D02*
X183540D01*
Y220370D01*
X202540D01*
Y239370D01*
D02*
G37*
G36*
X168891D02*
X166389D01*
X163973Y238723D01*
X161807Y237472D01*
X160038Y235703D01*
X158787Y233537D01*
X158140Y231121D01*
Y228619D01*
X158787Y226203D01*
X160038Y224037D01*
X161807Y222268D01*
X163973Y221017D01*
X166389Y220370D01*
X168891D01*
X171307Y221017D01*
X173473Y222268D01*
X175242Y224037D01*
X176493Y226203D01*
X177140Y228619D01*
Y231121D01*
X176493Y233537D01*
X175242Y235703D01*
X173473Y237472D01*
X171307Y238723D01*
X168891Y239370D01*
D02*
G37*
G36*
X432176Y244910D02*
X428884D01*
X425705Y244058D01*
X422855Y242412D01*
X420527Y240085D01*
X418882Y237235D01*
X418030Y234056D01*
Y230764D01*
X418882Y227585D01*
X420527Y224735D01*
X422855Y222407D01*
X425705Y220762D01*
X428884Y219910D01*
X432176D01*
X435355Y220762D01*
X438205Y222407D01*
X440532Y224735D01*
X442178Y227585D01*
X443030Y230764D01*
Y234056D01*
X442178Y237235D01*
X440532Y240085D01*
X438205Y242412D01*
X435355Y244058D01*
X432176Y244910D01*
D02*
G37*
G36*
X23236D02*
X19944D01*
X16765Y244058D01*
X13915Y242412D01*
X11588Y240085D01*
X9942Y237235D01*
X9090Y234056D01*
Y230764D01*
X9942Y227585D01*
X11588Y224735D01*
X13915Y222407D01*
X16765Y220762D01*
X19944Y219910D01*
X23236D01*
X26415Y220762D01*
X29265Y222407D01*
X31593Y224735D01*
X33238Y227585D01*
X34090Y230764D01*
Y234056D01*
X33238Y237235D01*
X31593Y240085D01*
X29265Y242412D01*
X26415Y244058D01*
X23236Y244910D01*
D02*
G37*
G36*
X292098Y190170D02*
X290208D01*
X288462Y189447D01*
X287126Y188111D01*
X286403Y186365D01*
Y184475D01*
X287126Y182729D01*
X288462Y181393D01*
X290208Y180670D01*
X292098D01*
X293843Y181393D01*
X295180Y182729D01*
X295903Y184475D01*
Y186365D01*
X295180Y188111D01*
X293843Y189447D01*
X292098Y190170D01*
D02*
G37*
G36*
X276535Y172390D02*
X274645D01*
X272899Y171667D01*
X271563Y170331D01*
X270840Y168585D01*
Y166695D01*
X271563Y164949D01*
X272899Y163613D01*
X274645Y162890D01*
X276535D01*
X278281Y163613D01*
X279617Y164949D01*
X280340Y166695D01*
Y168585D01*
X279617Y170331D01*
X278281Y171667D01*
X276535Y172390D01*
D02*
G37*
G36*
X371785Y148260D02*
X369895D01*
X368149Y147537D01*
X366813Y146201D01*
X366090Y144455D01*
Y142565D01*
X366813Y140819D01*
X368149Y139483D01*
X369895Y138760D01*
X371785D01*
X373531Y139483D01*
X374867Y140819D01*
X375590Y142565D01*
Y144455D01*
X374867Y146201D01*
X373531Y147537D01*
X371785Y148260D01*
D02*
G37*
G36*
X166795Y146990D02*
X164905D01*
X163159Y146267D01*
X161823Y144931D01*
X161100Y143185D01*
Y141295D01*
X161823Y139549D01*
X163159Y138213D01*
X164905Y137490D01*
X166795D01*
X168541Y138213D01*
X169877Y139549D01*
X170600Y141295D01*
Y143185D01*
X169877Y144931D01*
X168541Y146267D01*
X166795Y146990D01*
D02*
G37*
G36*
X143185Y201600D02*
X141295D01*
X139549Y200877D01*
X138213Y199541D01*
X137490Y197795D01*
Y195905D01*
X138213Y194159D01*
X139549Y192823D01*
X141295Y192100D01*
X142664D01*
X185387Y149377D01*
X186380Y148714D01*
X187550Y148481D01*
X299313D01*
X315711Y132083D01*
Y119377D01*
X310218Y113884D01*
X308945D01*
X308945Y113884D01*
X307774Y113651D01*
X306782Y112988D01*
X306782Y112988D01*
X301414Y107620D01*
X300045D01*
X298299Y106897D01*
X296963Y105561D01*
X296240Y103815D01*
Y101925D01*
X296963Y100179D01*
X298299Y98843D01*
X298519Y98752D01*
X298817Y97254D01*
X298233Y96671D01*
X297510Y94925D01*
Y94067D01*
X296671Y93229D01*
X281179D01*
X259215Y115193D01*
X258222Y115856D01*
X257052Y116089D01*
X257052Y116089D01*
X234114D01*
X233587Y117359D01*
X234573Y118344D01*
X234573Y118344D01*
X235236Y119337D01*
X235469Y120507D01*
X235469Y120507D01*
Y128421D01*
X236437Y129389D01*
X237160Y131135D01*
Y133025D01*
X236437Y134771D01*
X235101Y136107D01*
X233811Y136641D01*
X234063Y137911D01*
X293521D01*
X294489Y136943D01*
X296235Y136220D01*
X298125D01*
X299871Y136943D01*
X301207Y138279D01*
X301930Y140025D01*
Y141915D01*
X301207Y143661D01*
X299871Y144997D01*
X298125Y145720D01*
X296235D01*
X294489Y144997D01*
X293521Y144029D01*
X214016D01*
X214016Y144029D01*
X212845Y143796D01*
X211853Y143133D01*
X211853Y143133D01*
X209327Y140607D01*
X208664Y139614D01*
X208502Y138801D01*
X208129Y138647D01*
X206793Y137311D01*
X206070Y135565D01*
Y133675D01*
X206793Y131929D01*
X207761Y130961D01*
Y124287D01*
X207761Y124287D01*
X207994Y123116D01*
X208431Y122462D01*
Y119701D01*
X207161Y118853D01*
X206685Y119050D01*
X204795D01*
X204494Y118925D01*
X204416Y119003D01*
X203423Y119666D01*
X202253Y119899D01*
X202253Y119899D01*
X186434D01*
X186434Y119899D01*
X185264Y119666D01*
X184271Y119003D01*
X184271Y119003D01*
X183100Y117831D01*
X182437Y116839D01*
X182204Y115668D01*
X182204Y115668D01*
Y106483D01*
X181046Y105796D01*
X180977Y105787D01*
X180319Y106198D01*
X180307Y106261D01*
X179643Y107254D01*
X178651Y107917D01*
X177481Y108149D01*
X176310Y107917D01*
X175318Y107254D01*
X174655Y106261D01*
X174422Y105091D01*
Y104480D01*
X174422Y104479D01*
X174655Y103309D01*
X175318Y102317D01*
X177924Y99710D01*
X177398Y98440D01*
X177020D01*
Y97055D01*
X176434Y96939D01*
X175442Y96276D01*
X175441Y96276D01*
X173097Y93931D01*
X172434Y92939D01*
X172201Y91768D01*
X172201Y91768D01*
Y86398D01*
X171028Y85912D01*
X162874Y94065D01*
Y94762D01*
X162641Y95932D01*
X161978Y96924D01*
X161978Y96924D01*
X146569Y112334D01*
Y158901D01*
X147537Y159869D01*
X148260Y161615D01*
Y163505D01*
X147537Y165251D01*
X146201Y166587D01*
X144455Y167310D01*
X142565D01*
X140819Y166587D01*
X139483Y165251D01*
X138760Y163505D01*
Y161615D01*
X139483Y159869D01*
X140451Y158901D01*
Y114454D01*
X139278Y113968D01*
X136599Y116647D01*
Y133956D01*
X136409Y134912D01*
Y153821D01*
X137377Y154789D01*
X138100Y156535D01*
Y158425D01*
X137377Y160171D01*
X136041Y161507D01*
X134295Y162230D01*
X132405D01*
X130659Y161507D01*
X129323Y160171D01*
X128600Y158425D01*
Y156535D01*
X129323Y154789D01*
X130291Y153821D01*
Y134147D01*
X130291Y134146D01*
X130481Y133191D01*
Y125831D01*
X129211Y125304D01*
X115863Y138653D01*
X114871Y139316D01*
X113700Y139549D01*
X113700Y139549D01*
X82170D01*
X82065Y139653D01*
X81073Y140316D01*
X79903Y140549D01*
X79903Y140549D01*
X77861D01*
X76843Y141567D01*
X75097Y142290D01*
X73208D01*
X72619Y143421D01*
X72571Y143555D01*
X75817Y146801D01*
X113545D01*
X116791Y143555D01*
Y142186D01*
X117514Y140440D01*
X118850Y139104D01*
X120596Y138381D01*
X122486D01*
X124232Y139104D01*
X125568Y140440D01*
X126291Y142186D01*
Y144076D01*
X125568Y145822D01*
X124232Y147158D01*
X122486Y147881D01*
X121117D01*
X116975Y152023D01*
X115982Y152686D01*
X114812Y152919D01*
X114812Y152919D01*
X74550D01*
X74550Y152919D01*
X73380Y152686D01*
X72387Y152023D01*
X72387Y152023D01*
X67107Y146743D01*
X66444Y145750D01*
X66431Y145687D01*
X63035Y142290D01*
X61666D01*
X59920Y141567D01*
X58610Y140257D01*
X57301Y141567D01*
X55555Y142290D01*
X53665D01*
X51919Y141567D01*
X50583Y140231D01*
X49860Y138485D01*
Y136595D01*
X50583Y134849D01*
X51919Y133513D01*
X53665Y132790D01*
X54903D01*
X56264Y131429D01*
X56479Y130347D01*
X56837Y129812D01*
X56246Y128542D01*
X56205D01*
X54459Y127819D01*
X53123Y126483D01*
X52400Y124737D01*
Y122848D01*
X53123Y121102D01*
X53951Y120274D01*
Y104535D01*
X54165Y103462D01*
X54772Y102552D01*
X78380Y78945D01*
X79289Y78337D01*
X80362Y78124D01*
X120923D01*
X125060Y73987D01*
X124790Y73335D01*
Y71445D01*
X125513Y69699D01*
X126849Y68363D01*
X128595Y67640D01*
X130485D01*
X132231Y68363D01*
X133567Y69699D01*
X134290Y71445D01*
Y73335D01*
X133665Y74843D01*
X134742Y75562D01*
X163934Y46370D01*
X163408Y45100D01*
X162908D01*
X161128Y44623D01*
X159532Y43701D01*
X158229Y42398D01*
X158115Y42201D01*
X156845D01*
X156731Y42398D01*
X155428Y43701D01*
X153832Y44623D01*
X152052Y45100D01*
X150208D01*
X148428Y44623D01*
X146832Y43701D01*
X145529Y42398D01*
X145415Y42201D01*
X144145D01*
X144031Y42398D01*
X142728Y43701D01*
X141132Y44623D01*
X139352Y45100D01*
X137508D01*
X135728Y44623D01*
X134132Y43701D01*
X132829Y42398D01*
X132715Y42201D01*
X131445D01*
X131331Y42398D01*
X130028Y43701D01*
X128432Y44623D01*
X126652Y45100D01*
X124808D01*
X123028Y44623D01*
X121432Y43701D01*
X120129Y42398D01*
X119207Y40802D01*
X118730Y39022D01*
Y37178D01*
X119207Y35398D01*
X120129Y33802D01*
X120260Y33670D01*
X119734Y32400D01*
X118730D01*
Y18400D01*
X132730D01*
Y31168D01*
X132730Y31720D01*
X133794Y32603D01*
X134046Y32585D01*
X134132Y32499D01*
X135728Y31577D01*
X137508Y31100D01*
X139352D01*
X141132Y31577D01*
X142728Y32499D01*
X144031Y33802D01*
X144145Y33999D01*
X145415D01*
X145529Y33802D01*
X146832Y32499D01*
X148428Y31577D01*
X150208Y31100D01*
X152052D01*
X153832Y31577D01*
X155428Y32499D01*
X156731Y33802D01*
X156845Y33999D01*
X158115D01*
X158229Y33802D01*
X159532Y32499D01*
X159729Y32385D01*
Y31115D01*
X159532Y31001D01*
X158229Y29698D01*
X157307Y28102D01*
X156830Y26322D01*
Y24478D01*
X157307Y22698D01*
X158229Y21102D01*
X159532Y19799D01*
X161128Y18877D01*
X162908Y18400D01*
X164752D01*
X166532Y18877D01*
X168128Y19799D01*
X169431Y21102D01*
X170353Y22698D01*
X170830Y24478D01*
Y26322D01*
X170353Y28102D01*
X169431Y29698D01*
X168128Y31001D01*
X167931Y31115D01*
Y32385D01*
X168128Y32499D01*
X169431Y33802D01*
X169545Y33999D01*
X170815D01*
X170929Y33802D01*
X172232Y32499D01*
X173828Y31577D01*
X175608Y31100D01*
X177452D01*
X179232Y31577D01*
X180828Y32499D01*
X182131Y33802D01*
X183053Y35398D01*
X183530Y37178D01*
Y38158D01*
X184800Y38802D01*
X185262Y38464D01*
Y37825D01*
X185986Y36079D01*
X187322Y34743D01*
X189068Y34020D01*
X190957D01*
X192703Y34743D01*
X194039Y36079D01*
X194480Y37145D01*
X195936Y37485D01*
X200594Y32827D01*
X200594Y32827D01*
X201586Y32164D01*
X202757Y31931D01*
X202757Y31931D01*
X238776D01*
X238777Y31931D01*
X239947Y32164D01*
X240940Y32827D01*
X243484Y35371D01*
X282637D01*
X282638Y35371D01*
X283808Y35604D01*
X284800Y36267D01*
X289832Y41298D01*
X290495Y42291D01*
X290728Y43461D01*
X290728Y43461D01*
Y43832D01*
X292799Y45904D01*
X293039Y45805D01*
X294928D01*
X296674Y46528D01*
X298010Y47864D01*
X298734Y49610D01*
Y51499D01*
X298010Y53245D01*
X296674Y54581D01*
X294928Y55304D01*
X293039D01*
X291595Y54707D01*
X291047Y56031D01*
X289711Y57367D01*
X287965Y58090D01*
X287633D01*
X286752Y58884D01*
X286519Y60054D01*
X285856Y61047D01*
X285721Y61385D01*
X286264Y61980D01*
X286719Y62307D01*
X287758Y62101D01*
X287758Y62101D01*
X289414D01*
X289415Y62101D01*
X290585Y62333D01*
X291577Y62997D01*
X337443Y108862D01*
X337443Y108862D01*
X338106Y109854D01*
X338339Y111025D01*
Y119531D01*
X339307Y120499D01*
X340030Y122245D01*
Y124135D01*
X339307Y125881D01*
X337971Y127217D01*
X336225Y127940D01*
X334335D01*
X332589Y127217D01*
X331253Y125881D01*
X331162Y125661D01*
X329664Y125363D01*
X329081Y125947D01*
X327335Y126670D01*
X325445D01*
X323699Y125947D01*
X323099Y125346D01*
X321829Y125872D01*
Y133350D01*
X321829Y133350D01*
X321596Y134521D01*
X320933Y135513D01*
X320933Y135513D01*
X305138Y151308D01*
X305624Y152481D01*
X307940D01*
X307940Y152481D01*
X309111Y152714D01*
X310103Y153377D01*
X313266Y156540D01*
X314635D01*
X316381Y157263D01*
X317717Y158599D01*
X318440Y160345D01*
Y162235D01*
X317717Y163981D01*
X316381Y165317D01*
X314635Y166040D01*
X312745D01*
X310999Y165317D01*
X309663Y163981D01*
X308940Y162235D01*
Y160866D01*
X306673Y158599D01*
X221647D01*
X216840Y163406D01*
Y164775D01*
X216117Y166521D01*
X214781Y167857D01*
X213035Y168580D01*
X211145D01*
X209399Y167857D01*
X208063Y166521D01*
X207340Y164775D01*
Y162885D01*
X208063Y161139D01*
X209399Y159803D01*
X211145Y159080D01*
X212514D01*
X215822Y155772D01*
X215336Y154599D01*
X188817D01*
X146990Y196426D01*
Y197795D01*
X146267Y199541D01*
X144931Y200877D01*
X143185Y201600D01*
D02*
G37*
G36*
X178745Y145720D02*
X176855D01*
X175109Y144997D01*
X173773Y143661D01*
X173050Y141915D01*
Y140025D01*
X173773Y138279D01*
X175109Y136943D01*
X176855Y136220D01*
X178745D01*
X180491Y136943D01*
X181827Y138279D01*
X182550Y140025D01*
Y141915D01*
X181827Y143661D01*
X180491Y144997D01*
X178745Y145720D01*
D02*
G37*
G36*
X393375Y121590D02*
X391485D01*
X389739Y120867D01*
X388403Y119531D01*
X387680Y117785D01*
Y115895D01*
X388403Y114149D01*
X389739Y112813D01*
X391485Y112090D01*
X393375D01*
X395121Y112813D01*
X396457Y114149D01*
X397180Y115895D01*
Y117785D01*
X396457Y119531D01*
X395121Y120867D01*
X393375Y121590D01*
D02*
G37*
G36*
X50475Y167310D02*
X48585D01*
X46839Y166587D01*
X45503Y165251D01*
X44780Y163505D01*
Y161615D01*
X45503Y159869D01*
X46471Y158901D01*
Y149140D01*
X42887Y145556D01*
X42224Y144564D01*
X41991Y143393D01*
X41991Y143393D01*
Y76870D01*
X41991Y76870D01*
X42224Y75700D01*
X42887Y74707D01*
X82880Y34714D01*
Y33345D01*
X83603Y31599D01*
X84939Y30263D01*
X86685Y29540D01*
X88575D01*
X90321Y30263D01*
X91657Y31599D01*
X92380Y33345D01*
Y35235D01*
X91657Y36981D01*
X90321Y38317D01*
X88575Y39040D01*
X87206D01*
X48109Y78137D01*
Y84769D01*
X49379Y85617D01*
X49855Y85420D01*
X51745D01*
X53491Y86143D01*
X54827Y87479D01*
X55550Y89225D01*
Y91115D01*
X54827Y92861D01*
X53491Y94197D01*
X51745Y94920D01*
X49855D01*
X49379Y94723D01*
X48109Y95571D01*
Y142126D01*
X51693Y145710D01*
X52356Y146703D01*
X52589Y147873D01*
Y158901D01*
X53557Y159869D01*
X54280Y161615D01*
Y163505D01*
X53557Y165251D01*
X52221Y166587D01*
X50475Y167310D01*
D02*
G37*
G36*
X407070Y107799D02*
X407070Y107799D01*
X354930D01*
X353759Y107566D01*
X352767Y106903D01*
X352767Y106903D01*
X337927Y92063D01*
X337264Y91071D01*
X337031Y89900D01*
X337031Y89900D01*
Y70699D01*
X336333Y70001D01*
X335610Y68255D01*
Y66365D01*
X336333Y64619D01*
X337669Y63283D01*
X339415Y62560D01*
X341305D01*
X343051Y63283D01*
X344387Y64619D01*
X345110Y66365D01*
Y68255D01*
X344387Y70001D01*
X343149Y71239D01*
Y88633D01*
X356197Y101681D01*
X367741D01*
X368093Y100411D01*
X367407Y99953D01*
X349674Y82220D01*
X348305D01*
X346559Y81497D01*
X345223Y80161D01*
X344500Y78415D01*
Y76525D01*
X345223Y74779D01*
X346559Y73443D01*
X348305Y72720D01*
X350195D01*
X351941Y73443D01*
X353277Y74779D01*
X354000Y76525D01*
Y77894D01*
X370837Y94731D01*
X402593D01*
X415394Y81930D01*
X414868Y80660D01*
X401940D01*
Y66660D01*
X414709D01*
X415260Y66660D01*
X416143Y65596D01*
X416125Y65344D01*
X416039Y65258D01*
X415117Y63662D01*
X414640Y61882D01*
Y60038D01*
X415117Y58258D01*
X416039Y56662D01*
X417342Y55359D01*
X417539Y55245D01*
Y53975D01*
X417342Y53861D01*
X416039Y52558D01*
X415925Y52361D01*
X414655D01*
X414541Y52558D01*
X413238Y53861D01*
X411642Y54783D01*
X409862Y55260D01*
X408018D01*
X406238Y54783D01*
X404642Y53861D01*
X403339Y52558D01*
X402417Y50962D01*
X401940Y49182D01*
Y47338D01*
X402417Y45558D01*
X403339Y43962D01*
X404642Y42659D01*
X404839Y42545D01*
Y41275D01*
X404642Y41161D01*
X403339Y39858D01*
X402417Y38262D01*
X401940Y36482D01*
Y34639D01*
X402417Y32858D01*
X403339Y31262D01*
X404642Y29959D01*
X406238Y29037D01*
X408018Y28560D01*
X409861D01*
X411642Y29037D01*
X413238Y29959D01*
X414541Y31262D01*
X414655Y31459D01*
X415925D01*
X416039Y31262D01*
X417342Y29959D01*
X417539Y29845D01*
Y28575D01*
X417342Y28461D01*
X416039Y27158D01*
X415117Y25562D01*
X414640Y23781D01*
Y21938D01*
X415117Y20158D01*
X416039Y18562D01*
X417342Y17259D01*
X418938Y16337D01*
X420718Y15860D01*
X422561D01*
X424342Y16337D01*
X425938Y17259D01*
X427241Y18562D01*
X428163Y20158D01*
X428640Y21938D01*
Y23781D01*
X428163Y25562D01*
X427241Y27158D01*
X425938Y28461D01*
X425741Y28575D01*
Y29845D01*
X425938Y29959D01*
X427241Y31262D01*
X428163Y32858D01*
X428640Y34638D01*
Y36481D01*
X428163Y38262D01*
X427241Y39858D01*
X425938Y41161D01*
X425741Y41275D01*
Y42545D01*
X425938Y42659D01*
X427241Y43962D01*
X428163Y45558D01*
X428640Y47338D01*
Y49182D01*
X428163Y50962D01*
X427241Y52558D01*
X425938Y53861D01*
X425741Y53975D01*
Y55245D01*
X425938Y55359D01*
X427241Y56662D01*
X428163Y58258D01*
X428408Y59171D01*
X429260D01*
X429260Y59171D01*
X430430Y59404D01*
X431423Y60067D01*
X436503Y65147D01*
X436503Y65147D01*
X437166Y66139D01*
X437399Y67310D01*
X437399Y67310D01*
Y77470D01*
X437399Y77470D01*
X437166Y78640D01*
X436503Y79633D01*
X436503Y79633D01*
X409233Y106903D01*
X408241Y107566D01*
X407070Y107799D01*
D02*
G37*
G36*
X388295Y64440D02*
X386405D01*
X384659Y63717D01*
X383323Y62381D01*
X382600Y60635D01*
Y58745D01*
X383323Y56999D01*
X384291Y56031D01*
Y25249D01*
X383323Y24281D01*
X382600Y22535D01*
Y20645D01*
X383323Y18899D01*
X384659Y17563D01*
X386405Y16840D01*
X388295D01*
X390041Y17563D01*
X391377Y18899D01*
X392100Y20645D01*
Y22535D01*
X391377Y24281D01*
X390409Y25249D01*
Y56031D01*
X391377Y56999D01*
X392100Y58745D01*
Y60635D01*
X391377Y62381D01*
X390041Y63717D01*
X388295Y64440D01*
D02*
G37*
%LPD*%
G36*
X231010Y136641D02*
X229719Y136107D01*
X228383Y134771D01*
X227660Y133025D01*
Y131135D01*
X228383Y129389D01*
X229351Y128421D01*
Y122202D01*
X225456D01*
X224286Y121969D01*
X224253Y121948D01*
X223219Y122103D01*
X222681Y122425D01*
X222464Y122947D01*
X221128Y124284D01*
X219382Y125007D01*
X217493D01*
X215747Y124284D01*
X215717Y124254D01*
X214339Y124672D01*
X214316Y124787D01*
X213879Y125441D01*
Y130961D01*
X214847Y131929D01*
X215570Y133675D01*
Y135565D01*
X215091Y136721D01*
X215906Y137911D01*
X230757D01*
X231010Y136641D01*
D02*
G37*
G36*
X323331Y117237D02*
Y109059D01*
X308280Y94008D01*
X307010Y94534D01*
Y94925D01*
X306287Y96671D01*
X304951Y98007D01*
X304731Y98098D01*
X304433Y99596D01*
X305017Y100179D01*
X305740Y101925D01*
Y103294D01*
X310212Y107766D01*
X311485D01*
X311485Y107766D01*
X312655Y107999D01*
X313648Y108662D01*
X320933Y115947D01*
X320933Y115947D01*
X321596Y116939D01*
X321610Y117009D01*
X323004Y117507D01*
X323331Y117237D01*
D02*
G37*
G36*
X63823Y123941D02*
X63823Y123941D01*
X95610D01*
X122194Y97358D01*
X121896Y95860D01*
X121419Y95662D01*
X120353Y94597D01*
X116171D01*
X115301Y95467D01*
X113555Y96190D01*
X111665D01*
X109919Y95467D01*
X108583Y94131D01*
X107860Y92385D01*
Y90495D01*
X108583Y88749D01*
X109919Y87413D01*
X111665Y86690D01*
X113555D01*
X115301Y87413D01*
X116367Y88479D01*
X120549D01*
X121419Y87609D01*
X123165Y86886D01*
X125055D01*
X126801Y87609D01*
X128137Y88945D01*
X128334Y89421D01*
X129832Y89719D01*
X132627Y86925D01*
Y78945D01*
X132627Y78945D01*
X132859Y77774D01*
X133242Y77201D01*
X132255Y76392D01*
X132231Y76417D01*
X130485Y77140D01*
X129838D01*
X124067Y82910D01*
X123158Y83518D01*
X122085Y83731D01*
X81524D01*
X59559Y105696D01*
Y119649D01*
X59841Y119766D01*
X61177Y121102D01*
X61900Y122848D01*
Y123266D01*
X63170Y124071D01*
X63823Y123941D01*
D02*
G37*
G36*
X275319Y81035D02*
X275319Y81035D01*
X276311Y80372D01*
X277482Y80140D01*
X277482Y80140D01*
X298409D01*
X298895Y78966D01*
X288586Y68657D01*
X285999Y71244D01*
X285007Y71907D01*
X283836Y72140D01*
X283836Y72140D01*
X245250D01*
X244079Y71907D01*
X243087Y71244D01*
X243087Y71244D01*
X221892Y50049D01*
X214511D01*
X186020Y78539D01*
Y80532D01*
X186433Y80614D01*
X187425Y81277D01*
X187685Y81537D01*
X189183Y81238D01*
X189380Y80762D01*
X190716Y79426D01*
X192462Y78703D01*
X194352D01*
X196098Y79426D01*
X196250Y79578D01*
X197520Y79052D01*
Y77940D01*
X206520D01*
Y80432D01*
X207433Y80614D01*
X208425Y81277D01*
X216469Y89321D01*
X223618D01*
X223618Y89321D01*
X224789Y89554D01*
X225781Y90217D01*
X226953Y91389D01*
X226953Y91389D01*
X227616Y92381D01*
X227849Y93552D01*
X227849Y93552D01*
Y101270D01*
X227691Y102060D01*
X228286Y103080D01*
X228549Y103330D01*
X253024D01*
X275319Y81035D01*
D02*
G37*
G36*
X147480Y90329D02*
Y73135D01*
X146306Y72649D01*
X138744Y80212D01*
Y88192D01*
X138744Y88192D01*
X138511Y89362D01*
X137848Y90355D01*
X137848Y90355D01*
X123706Y104497D01*
X124232Y105767D01*
X124431D01*
X126176Y106490D01*
X127513Y107826D01*
X127710Y108303D01*
X129208Y108601D01*
X147480Y90329D01*
D02*
G37*
G36*
X284927Y63664D02*
X284118Y62678D01*
X283449Y63124D01*
X282279Y63357D01*
X282279Y63357D01*
X280622D01*
X280622Y63357D01*
X279452Y63124D01*
X278459Y62461D01*
X278459Y62461D01*
X266237Y50239D01*
X232393D01*
X231907Y51412D01*
X246517Y66022D01*
X282569D01*
X284927Y63664D01*
D02*
G37*
G36*
X164961Y77670D02*
Y75384D01*
X164961Y75384D01*
X165194Y74213D01*
X165857Y73221D01*
X172301Y66777D01*
X173293Y66114D01*
X174464Y65881D01*
X174464Y65881D01*
X178713D01*
X204809Y39785D01*
X204354Y38444D01*
X203713Y38360D01*
X188510Y53563D01*
X187517Y54226D01*
X186347Y54459D01*
X186347Y54459D01*
X170847D01*
X153597Y71708D01*
Y87374D01*
X154771Y87860D01*
X164961Y77670D01*
D02*
G37*
%LPC*%
G36*
X257280Y93855D02*
X255390D01*
X253644Y93132D01*
X252308Y91796D01*
X251585Y90050D01*
Y88160D01*
X252308Y86414D01*
X253644Y85078D01*
X255390Y84355D01*
X257280D01*
X259026Y85078D01*
X260362Y86414D01*
X261085Y88160D01*
Y90050D01*
X260362Y91796D01*
X259026Y93132D01*
X257280Y93855D01*
D02*
G37*
G36*
X232085Y91110D02*
X230195D01*
X228449Y90387D01*
X227113Y89051D01*
X226390Y87305D01*
Y85415D01*
X227113Y83669D01*
X228449Y82333D01*
X230195Y81610D01*
X232085D01*
X233831Y82333D01*
X235167Y83669D01*
X235890Y85415D01*
Y87305D01*
X235167Y89051D01*
X233831Y90387D01*
X232085Y91110D01*
D02*
G37*
%LPD*%
D11*
X369570Y97790D02*
X403860D01*
X421162Y80488D01*
Y74138D02*
X421640Y73660D01*
X421162Y74138D02*
Y80488D01*
X287669Y45099D02*
X293125Y50555D01*
X282279Y60298D02*
X283693Y58884D01*
Y57614D02*
Y58884D01*
X287020Y53340D02*
Y54287D01*
X283693Y57614D02*
X287020Y54287D01*
X293125Y50555D02*
X293983D01*
X280622Y60298D02*
X282279D01*
X267504Y47180D02*
X280622Y60298D01*
X245250Y69081D02*
X283836D01*
X223159Y46990D02*
X245250Y69081D01*
X213244Y46990D02*
X223159D01*
X269161Y43180D02*
X270161Y44180D01*
X238777Y34990D02*
X242217Y38430D01*
X228277Y40260D02*
X231197Y43180D01*
X229540Y47180D02*
X267504D01*
X282638Y38430D02*
X287669Y43461D01*
X226620Y44260D02*
X229540Y47180D01*
X242217Y38430D02*
X282638D01*
X231197Y43180D02*
X269161D01*
X270161Y44180D02*
X279963D01*
X225327Y106389D02*
X254291D01*
X277482Y83198D02*
X301796D01*
X254291Y106389D02*
X277482Y83198D01*
X169580Y51400D02*
X186347D01*
X150539Y70441D02*
X169580Y51400D01*
X150539Y70441D02*
Y91596D01*
X135685Y78945D02*
Y88192D01*
Y78945D02*
X167640Y46990D01*
X181620D01*
X176121Y72940D02*
X179674D01*
X181331Y76940D02*
X183294D01*
X176020Y78697D02*
Y82250D01*
X174464Y68940D02*
X179980D01*
X172020Y77041D02*
X176121Y72940D01*
X172020Y77041D02*
Y80594D01*
X176020Y78697D02*
X177777Y76940D01*
X168020Y75384D02*
Y78937D01*
X179674Y72940D02*
X181637D01*
X177777Y76940D02*
X181331D01*
X168020Y75384D02*
X174464Y68940D01*
X63823Y127000D02*
X96877D01*
X186347Y51400D02*
X202757Y34990D01*
X154538Y92418D02*
X168020Y78937D01*
X175260Y83011D02*
X176020Y82250D01*
X159815Y92798D02*
X172020Y80594D01*
X175260Y83011D02*
Y91768D01*
X96877Y127000D02*
X135685Y88192D01*
X154538Y92418D02*
Y94382D01*
X159815Y92798D02*
Y94762D01*
X74550Y149860D02*
X114812D01*
X121541Y143131D01*
X283836Y69081D02*
X287758Y65160D01*
X257052Y113030D02*
X279912Y90170D01*
X297938D01*
X227474Y113030D02*
X257052D01*
X224790Y93552D02*
Y101270D01*
X230853Y86073D02*
X231140Y86360D01*
X223618Y92380D02*
X224790Y93552D01*
X215203Y92380D02*
X223618D01*
X211490Y114570D02*
X224790Y101270D01*
X227402Y112958D02*
X227474Y113030D01*
X300990Y102870D02*
X308945Y110825D01*
X311485D01*
X349250Y77470D02*
X369570Y97790D01*
X187550Y151540D02*
X300580D01*
X142240Y196850D02*
X187550Y151540D01*
X307940Y155540D02*
X313690Y161290D01*
X212090Y163830D02*
X220380Y155540D01*
X300580Y151540D02*
X318770Y133350D01*
X220380Y155540D02*
X307940D01*
X69270Y144199D02*
Y144580D01*
X62610Y137540D02*
X69270Y144199D01*
X69051Y132080D02*
X71480D01*
X79903Y137490D02*
X80903Y136490D01*
X74202Y137490D02*
X79903D01*
X68382Y132750D02*
X69051Y132080D01*
X74153Y137540D02*
X74202Y137490D01*
X54610Y137409D02*
Y137540D01*
X72224Y131337D02*
X109640D01*
X59305Y131518D02*
Y132714D01*
X71480Y132080D02*
X72224Y131337D01*
X59305Y131518D02*
X63823Y127000D01*
X80903Y136490D02*
X113700D01*
X54610Y137409D02*
X59305Y132714D01*
X109640Y131337D02*
X117787Y123190D01*
X69270Y144580D02*
X74550Y149860D01*
X133540Y115380D02*
X154538Y94382D01*
X175260Y91768D02*
X177605Y94113D01*
X143510Y111067D02*
X159815Y94762D01*
X180943Y94113D02*
X181520Y94690D01*
X177605Y94113D02*
X180943D01*
X185263Y89940D02*
X187020Y91697D01*
X184020Y89940D02*
X185263D01*
X187020Y91697D02*
Y97683D01*
X181520Y81690D02*
X182270D01*
X193564Y83453D02*
X197552Y87440D01*
X185263Y83440D02*
X193011Y91189D01*
X193407Y83453D02*
X193564D01*
X113700Y136490D02*
X128270Y121920D01*
X45050Y143393D02*
X49530Y147873D01*
X45050Y76870D02*
Y143393D01*
X133350Y134146D02*
Y157480D01*
Y134146D02*
X133540Y133956D01*
X128270Y113864D02*
Y121920D01*
Y113864D02*
X150539Y91596D01*
X202757Y34990D02*
X238777D01*
X133540Y115380D02*
Y133956D01*
X287758Y65160D02*
X289415D01*
X211587Y42990D02*
X225350D01*
X183294Y76940D02*
X213244Y46990D01*
X143510Y111067D02*
Y162560D01*
X179980Y68940D02*
X209930Y38990D01*
X289415Y65160D02*
X335280Y111025D01*
X181637Y72940D02*
X211587Y42990D01*
X209930Y38990D02*
X227007D01*
X181620Y46990D02*
X189840Y38770D01*
X190012D01*
X124012Y91538D02*
X124110Y91636D01*
X112610Y91440D02*
X112708Y91538D01*
X124012D01*
X45050Y76870D02*
X87630Y34290D01*
X206262Y83440D02*
X215203Y92380D01*
X204520Y83440D02*
X206262D01*
X202020Y94690D02*
X202058Y94652D01*
X208552D01*
X208590Y94614D01*
X221310Y110407D02*
X225327Y106389D01*
X186434Y116840D02*
X202253D01*
X204793Y114300D02*
X205740D01*
X202253Y116840D02*
X204793Y114300D01*
X211490Y114570D02*
Y123617D01*
X221310Y110407D02*
Y114998D01*
X225456Y119144D02*
X231047D01*
X232410Y120507D01*
X221310Y114998D02*
X225456Y119144D01*
X301796Y83198D02*
X326390Y107792D01*
Y121920D01*
X318770Y118110D02*
Y133350D01*
X311485Y110825D02*
X318770Y118110D01*
X297938Y90170D02*
X301748Y93980D01*
X302260D01*
X335280Y111025D02*
Y123190D01*
X340090Y89900D02*
X354930Y104740D01*
X340090Y67580D02*
Y89900D01*
Y67580D02*
X340360Y67310D01*
X407070Y104740D02*
X434340Y77470D01*
X354930Y104740D02*
X407070D01*
X434340Y67310D02*
Y77470D01*
X200520Y101940D02*
X202020D01*
X202770Y101190D01*
X196617Y105643D02*
X196817D01*
X191770Y110490D02*
X196617Y105643D01*
X196817D02*
X200520Y101940D01*
X177481Y104479D02*
X180770Y101190D01*
X177481Y104479D02*
Y105091D01*
X185263Y105940D02*
Y115668D01*
X186434Y116840D01*
X185263Y105940D02*
X187020Y104183D01*
X187014Y97689D02*
Y98192D01*
Y97689D02*
X187020Y97683D01*
X187014Y98192D02*
X187020Y98197D01*
Y104183D01*
X182270Y88190D02*
X184020Y89940D01*
X210820Y124287D02*
Y134620D01*
Y124287D02*
X211490Y123617D01*
X210820Y134620D02*
X211490Y135290D01*
X214016Y140970D02*
X297180D01*
X211490Y138444D02*
X214016Y140970D01*
X211490Y135290D02*
Y138444D01*
X180770Y101190D02*
X181520D01*
X287669Y43461D02*
Y45099D01*
X197552Y87440D02*
X201270D01*
X193011Y91189D02*
Y97692D01*
X192764Y97939D02*
X193011Y97692D01*
X227007Y38990D02*
X228277Y40260D01*
X225350Y42990D02*
X226620Y44260D01*
X202020Y81690D02*
X202770D01*
X204520Y83440D01*
X232410Y120507D02*
Y132080D01*
X201270Y87440D02*
X202020Y88190D01*
X184020Y83440D02*
X185263D01*
X182270Y81690D02*
X184020Y83440D01*
X49530Y147873D02*
Y162560D01*
X421640Y60960D02*
X422910Y62230D01*
X429260D01*
X434340Y67310D01*
X387350Y21590D02*
Y59690D01*
X181520Y88190D02*
X182270D01*
D14*
X56755Y104535D02*
Y123397D01*
X57150Y123792D01*
X80362Y80928D02*
X122085D01*
X56755Y104535D02*
X80362Y80928D01*
X122085D02*
X129540Y73472D01*
Y72390D02*
Y73472D01*
D61*
X421640Y22860D02*
D03*
X408940Y22860D02*
D03*
Y35560D02*
D03*
X408940Y48260D02*
D03*
X408940Y60960D02*
D03*
X421640Y35560D02*
D03*
X421640Y48260D02*
D03*
X421640Y60960D02*
D03*
X421640Y73660D02*
D03*
X176530Y38100D02*
D03*
Y25400D02*
D03*
X163830D02*
D03*
X151130D02*
D03*
X138430D02*
D03*
X163830Y38100D02*
D03*
X151130D02*
D03*
X138430D02*
D03*
X125730D02*
D03*
D62*
X408940Y73660D02*
D03*
D63*
X125730Y25400D02*
D03*
D64*
X167640Y229870D02*
D03*
X304800Y231140D02*
D03*
D65*
X193040Y229870D02*
D03*
X279400Y231140D02*
D03*
D66*
X349250Y110490D02*
D03*
X337820Y97790D02*
D03*
X323850Y82550D02*
D03*
X287020Y53340D02*
D03*
X293983Y50555D02*
D03*
X246380Y59951D02*
D03*
X217170Y56550D02*
D03*
X269240Y60550D02*
D03*
X62230Y175260D02*
D03*
X118110Y179070D02*
D03*
X256335Y89105D02*
D03*
X248650Y98222D02*
D03*
X163830Y68580D02*
D03*
X175260Y62230D02*
D03*
X121541Y143131D02*
D03*
X157215Y107457D02*
D03*
X104140Y201930D02*
D03*
X101600Y219710D02*
D03*
X231140Y86360D02*
D03*
X215570Y99060D02*
D03*
X227402Y112958D02*
D03*
X271780Y116840D02*
D03*
X300990Y102870D02*
D03*
X293370Y161290D02*
D03*
X86360Y184150D02*
D03*
X105410Y38100D02*
D03*
X223520Y229870D02*
D03*
X346710Y8890D02*
D03*
X124460Y53340D02*
D03*
X330200Y160020D02*
D03*
X228600Y165100D02*
D03*
X440690Y8890D02*
D03*
X330200Y35560D02*
D03*
X73660Y121250D02*
D03*
X62610Y137540D02*
D03*
X68382Y132750D02*
D03*
X74153Y137540D02*
D03*
X54610D02*
D03*
X57150Y123792D02*
D03*
X99060Y155610D02*
D03*
X193407Y83453D02*
D03*
X133350Y157480D02*
D03*
X123486Y110517D02*
D03*
X190012Y38770D02*
D03*
X112610Y91440D02*
D03*
X124110Y91636D02*
D03*
X117787Y123190D02*
D03*
X143510Y162560D02*
D03*
X100330Y142240D02*
D03*
X392430Y116840D02*
D03*
X370840Y143510D02*
D03*
X90170Y88900D02*
D03*
X291153Y185420D02*
D03*
X304800Y194310D02*
D03*
X313690D02*
D03*
X129540Y72390D02*
D03*
X50800Y90170D02*
D03*
X166370Y157480D02*
D03*
X153670Y124460D02*
D03*
X57150Y161290D02*
D03*
X31750Y163830D02*
D03*
Y87630D02*
D03*
X208590Y94614D02*
D03*
X205740Y114300D02*
D03*
X326390Y121920D02*
D03*
X302260Y93980D02*
D03*
X340360Y67310D02*
D03*
X313690Y161290D02*
D03*
X177800Y125730D02*
D03*
X165850Y142240D02*
D03*
X177481Y105091D02*
D03*
X218438Y120257D02*
D03*
X191770Y110490D02*
D03*
X177800Y140970D02*
D03*
X210820Y134620D02*
D03*
X430530Y135890D02*
D03*
X421640Y144780D02*
D03*
X283210Y21590D02*
D03*
X254000Y22860D02*
D03*
X431800Y179070D02*
D03*
X386080Y213360D02*
D03*
X414020Y200660D02*
D03*
X434340Y214630D02*
D03*
X363220Y228600D02*
D03*
X97790Y60960D02*
D03*
X41910D02*
D03*
X69850Y25400D02*
D03*
X12700Y27940D02*
D03*
Y60960D02*
D03*
X44450Y181610D02*
D03*
X60960Y190500D02*
D03*
X21590Y189230D02*
D03*
Y210820D02*
D03*
X40640Y200660D02*
D03*
X39370Y220980D02*
D03*
X58420Y212090D02*
D03*
Y229870D02*
D03*
X73660Y67310D02*
D03*
X81280Y88900D02*
D03*
X87630Y34290D02*
D03*
X279963Y44180D02*
D03*
X192764Y97939D02*
D03*
X248920Y132080D02*
D03*
X349250Y77470D02*
D03*
X20320Y87630D02*
D03*
X10160D02*
D03*
X22860Y163830D02*
D03*
X10160D02*
D03*
X90170Y205740D02*
D03*
X176530Y179070D02*
D03*
X146050Y205740D02*
D03*
X142240Y196850D02*
D03*
X227330Y177800D02*
D03*
X255270Y185420D02*
D03*
X254000Y203200D02*
D03*
X260350Y167640D02*
D03*
X275590D02*
D03*
X408940Y165100D02*
D03*
X367030Y182880D02*
D03*
X358140Y173990D02*
D03*
X370840Y200660D02*
D03*
X49530Y162560D02*
D03*
X335280Y123190D02*
D03*
X297180Y140970D02*
D03*
X198120Y187960D02*
D03*
Y195580D02*
D03*
X389890Y72390D02*
D03*
X387350Y21590D02*
D03*
Y59690D02*
D03*
X232410Y132080D02*
D03*
X212090Y163830D02*
D03*
D67*
X388620Y238760D02*
D03*
D72*
X202020Y101190D02*
D03*
Y94690D02*
D03*
Y88190D02*
D03*
Y81690D02*
D03*
X181520D02*
D03*
Y88190D02*
D03*
Y94690D02*
D03*
Y101190D02*
D03*
M02*
