G04*
G04 #@! TF.GenerationSoftware,Altium Limited,Altium Designer,23.2.1 (34)*
G04*
G04 Layer_Color=8421504*
%FSLAX44Y44*%
%MOMM*%
G71*
G04*
G04 #@! TF.SameCoordinates,6BD8E7E4-2FF1-447F-9EB9-0F083043E660*
G04*
G04*
G04 #@! TF.FilePolarity,Positive*
G04*
G01*
G75*
%ADD17R,0.6400X0.6400*%
%ADD18P,0.9051X4X90.0*%
%ADD19P,0.9051X4X180.0*%
G04:AMPARAMS|DCode=20|XSize=1.475mm|YSize=0.6mm|CornerRadius=0mm|HoleSize=0mm|Usage=FLASHONLY|Rotation=225.000|XOffset=0mm|YOffset=0mm|HoleType=Round|Shape=Rectangle|*
%AMROTATEDRECTD20*
4,1,4,0.3094,0.7336,0.7336,0.3094,-0.3094,-0.7336,-0.7336,-0.3094,0.3094,0.7336,0.0*
%
%ADD20ROTATEDRECTD20*%

G04:AMPARAMS|DCode=21|XSize=1.475mm|YSize=0.6mm|CornerRadius=0mm|HoleSize=0mm|Usage=FLASHONLY|Rotation=315.000|XOffset=0mm|YOffset=0mm|HoleType=Round|Shape=Rectangle|*
%AMROTATEDRECTD21*
4,1,4,-0.7336,0.3094,-0.3094,0.7336,0.7336,-0.3094,0.3094,-0.7336,-0.7336,0.3094,0.0*
%
%ADD21ROTATEDRECTD21*%

%ADD22R,0.6400X0.6400*%
%ADD23R,0.4000X0.4000*%
%ADD24R,0.5000X0.5000*%
%ADD25R,0.4100X0.2800*%
%ADD26R,0.2800X0.4100*%
%ADD27R,1.7000X1.1000*%
%ADD28R,0.3500X0.6000*%
%ADD29R,1.2000X0.4000*%
%ADD30R,1.1000X1.7000*%
%ADD31R,0.6000X0.3500*%
D17*
X102870Y102020D02*
D03*
Y91020D02*
D03*
Y127420D02*
D03*
Y116420D02*
D03*
X217170Y65620D02*
D03*
Y76620D02*
D03*
X116840Y65620D02*
D03*
Y76620D02*
D03*
X259080Y144360D02*
D03*
Y155360D02*
D03*
X398780Y149440D02*
D03*
Y160440D02*
D03*
X436880Y96100D02*
D03*
X436880Y107100D02*
D03*
X130810Y199810D02*
D03*
Y188810D02*
D03*
X90170Y218020D02*
D03*
Y229020D02*
D03*
X227330Y199810D02*
D03*
Y188810D02*
D03*
X275590Y155360D02*
D03*
Y144360D02*
D03*
D18*
X399971Y125651D02*
D03*
X407749Y133429D02*
D03*
X419179Y123269D02*
D03*
X411401Y115491D02*
D03*
D19*
X383619Y167561D02*
D03*
X375841Y175339D02*
D03*
X364411Y163909D02*
D03*
X372189Y156131D02*
D03*
X250111Y71199D02*
D03*
X257889Y63421D02*
D03*
X262811Y80089D02*
D03*
X270589Y72311D02*
D03*
D20*
X382270Y107950D02*
D03*
X376613Y113607D02*
D03*
X370956Y119264D02*
D03*
X365299Y124921D02*
D03*
X359643Y130577D02*
D03*
X353986Y136234D02*
D03*
X348329Y141891D02*
D03*
X342672Y147548D02*
D03*
X282738Y87614D02*
D03*
X288395Y81957D02*
D03*
X294051Y76300D02*
D03*
X299708Y70643D02*
D03*
X305365Y64986D02*
D03*
X311022Y59329D02*
D03*
X316679Y53672D02*
D03*
X322336Y48016D02*
D03*
D21*
Y147548D02*
D03*
X316679Y141891D02*
D03*
X311022Y136234D02*
D03*
X305365Y130577D02*
D03*
X299708Y124921D02*
D03*
X294051Y119264D02*
D03*
X288395Y113607D02*
D03*
X282738Y107950D02*
D03*
X342672Y48016D02*
D03*
X348329Y53672D02*
D03*
X353986Y59329D02*
D03*
X359643Y64986D02*
D03*
X365299Y70643D02*
D03*
X370956Y76300D02*
D03*
X376613Y81957D02*
D03*
X382270Y87614D02*
D03*
D22*
X188810Y125730D02*
D03*
X199810D02*
D03*
Y142240D02*
D03*
X188810D02*
D03*
X361530Y15240D02*
D03*
X372530D02*
D03*
X387770Y40640D02*
D03*
X376770D02*
D03*
X155360Y142240D02*
D03*
X144360D02*
D03*
X146470Y60960D02*
D03*
X135470D02*
D03*
Y83820D02*
D03*
X146470D02*
D03*
X206590Y33020D02*
D03*
X217590D02*
D03*
X67310Y78740D02*
D03*
X56310D02*
D03*
X267550Y185420D02*
D03*
X278550D02*
D03*
X169330Y187960D02*
D03*
X158330D02*
D03*
X169330Y205740D02*
D03*
X158330D02*
D03*
X267550Y204470D02*
D03*
X278550D02*
D03*
X225640Y99060D02*
D03*
X236640D02*
D03*
D23*
X11430Y97790D02*
D03*
X22930D02*
D03*
X34430D02*
D03*
Y151790D02*
D03*
X22930D02*
D03*
X11430D02*
D03*
X55730Y105290D02*
D03*
X62230D02*
D03*
X68730D02*
D03*
X81730D02*
D03*
Y111790D02*
D03*
Y118290D02*
D03*
Y124790D02*
D03*
Y131290D02*
D03*
Y137790D02*
D03*
Y144290D02*
D03*
X75230D02*
D03*
X68730D02*
D03*
X62230D02*
D03*
X55730D02*
D03*
X49230Y124790D02*
D03*
Y118290D02*
D03*
Y105290D02*
D03*
Y98790D02*
D03*
X55730D02*
D03*
X68730D02*
D03*
X88230D02*
D03*
Y105290D02*
D03*
Y111790D02*
D03*
Y118290D02*
D03*
Y124790D02*
D03*
Y131290D02*
D03*
Y137790D02*
D03*
Y150790D02*
D03*
X81730D02*
D03*
X75230D02*
D03*
X68730D02*
D03*
X62230D02*
D03*
X55730D02*
D03*
X42730D02*
D03*
Y144290D02*
D03*
Y137790D02*
D03*
Y131290D02*
D03*
Y124790D02*
D03*
Y118290D02*
D03*
Y111790D02*
D03*
Y105290D02*
D03*
Y98790D02*
D03*
D24*
X68530Y114790D02*
D03*
D25*
X224260Y139580D02*
D03*
Y134580D02*
D03*
Y129580D02*
D03*
Y124580D02*
D03*
X240560D02*
D03*
Y129580D02*
D03*
Y134580D02*
D03*
Y139580D02*
D03*
D26*
X229910Y123930D02*
D03*
X234910D02*
D03*
Y140230D02*
D03*
X229910D02*
D03*
D27*
X308610Y194310D02*
D03*
D28*
X302110Y204810D02*
D03*
X308610D02*
D03*
X315110D02*
D03*
Y183810D02*
D03*
X308610D02*
D03*
X302110D02*
D03*
D29*
X133960Y235100D02*
D03*
Y228600D02*
D03*
Y222100D02*
D03*
X114960D02*
D03*
Y228600D02*
D03*
Y235100D02*
D03*
D30*
X198460Y191620D02*
D03*
D31*
X208960Y198120D02*
D03*
Y191620D02*
D03*
Y185120D02*
D03*
X187960D02*
D03*
Y191620D02*
D03*
Y198120D02*
D03*
M02*
