G04*
G04 #@! TF.GenerationSoftware,Altium Limited,Altium Designer,23.2.1 (34)*
G04*
G04 Layer_Color=65535*
%FSLAX44Y44*%
%MOMM*%
G71*
G04*
G04 #@! TF.SameCoordinates,05CDDFFE-BE6F-44C6-A9DB-1EEE65DF1ECD*
G04*
G04*
G04 #@! TF.FilePolarity,Positive*
G04*
G01*
G75*
%ADD10C,0.4000*%
%ADD11C,0.2000*%
%ADD12C,0.2500*%
%ADD13C,0.1524*%
%ADD14C,0.1500*%
%ADD15C,0.1000*%
%ADD16C,0.2540*%
D10*
X395138Y101848D02*
G03*
X395138Y101848I-2000J0D01*
G01*
D11*
X40530Y86790D02*
G03*
X42530Y86790I1000J0D01*
G01*
D02*
G03*
X40530Y86790I-1000J0D01*
G01*
X332504Y53234D02*
X377052Y97782D01*
X287956D02*
X332504Y53234D01*
X287956Y97782D02*
X332504Y142330D01*
X377052Y97782D01*
X433440Y14010D02*
Y73660D01*
X397140Y14010D02*
X433440D01*
X397140Y82510D02*
X397140Y14010D01*
X397140Y82510D02*
X408940D01*
X125730Y49900D02*
X185380D01*
Y13600D02*
Y49900D01*
X116880Y13600D02*
X185380D01*
X116880D02*
Y25400D01*
X108960Y240600D02*
X120960D01*
X154940Y217170D02*
X205740D01*
Y242570D01*
X154940D02*
X205740D01*
X154940Y217170D02*
Y242570D01*
X266700Y243840D02*
X317500D01*
X266700Y218440D02*
Y243840D01*
Y218440D02*
X317500D01*
Y243840D01*
D12*
X296610Y180810D02*
G03*
X296610Y180810I-1250J0D01*
G01*
X186210Y204870D02*
G03*
X186210Y204870I-1250J0D01*
G01*
D13*
X109120Y84770D02*
Y108270D01*
X96620D02*
X109120D01*
X96620Y84770D02*
Y108270D01*
X96870Y84770D02*
X108870D01*
X96620Y85020D02*
X96870Y84770D01*
X391309Y125474D02*
X391309Y125828D01*
X391309Y125474D02*
X399794Y116989D01*
X391132Y125651D02*
X407749Y142268D01*
X416588Y133429D01*
X399971Y116812D02*
X416588Y133429D01*
X383442Y158899D02*
X383796D01*
X392281Y167384D01*
X367002Y175339D02*
X383619Y158722D01*
X367002Y175339D02*
X375841Y184178D01*
X392458Y167561D01*
X108870Y133670D02*
X109120Y133420D01*
X96870Y133670D02*
X108870D01*
X109120Y110170D02*
Y133670D01*
X96620Y110170D02*
X109120D01*
X96620D02*
Y133670D01*
X182560Y131980D02*
X206060D01*
X182560Y119480D02*
Y131980D01*
Y119480D02*
X206060D01*
Y119730D02*
Y131730D01*
X205810Y119480D02*
X206060Y119730D01*
X210920Y59370D02*
Y82870D01*
Y59370D02*
X223420D01*
Y82870D01*
X211170D02*
X223170D01*
X223420Y82620D01*
X252830Y138110D02*
Y161610D01*
Y138110D02*
X265330D01*
Y161610D01*
X253080D02*
X265080D01*
X265330Y161360D01*
X411401Y106652D02*
X428018Y123269D01*
X419179Y132108D02*
X428018Y123269D01*
X402562Y115491D02*
X419179Y132108D01*
X402739Y115314D02*
X411224Y106829D01*
X402739Y115314D02*
Y115668D01*
X364411Y172748D02*
X381028Y156131D01*
X355572Y163909D02*
X364411Y172748D01*
X355572Y163909D02*
X372189Y147292D01*
X372366Y147469D02*
X380851Y155954D01*
X372012Y147469D02*
X372366D01*
X392530Y143190D02*
Y166690D01*
Y143190D02*
X405030D01*
Y166690D01*
X392780D02*
X404780D01*
X405030Y166440D01*
X249934Y79861D02*
X250288D01*
X241449Y71376D02*
X249934Y79861D01*
X250111Y80038D02*
X266728Y63421D01*
X257889Y54582D02*
X266728Y63421D01*
X241272Y71199D02*
X257889Y54582D01*
X73310Y72490D02*
X73560Y72740D01*
Y84740D01*
X50060Y72490D02*
X73560D01*
X50060D02*
Y84990D01*
X73560D01*
X262634Y88751D02*
X262988D01*
X254149Y80266D02*
X262634Y88751D01*
X262811Y88928D02*
X279428Y72311D01*
X270589Y63472D02*
X279428Y72311D01*
X253972Y80089D02*
X270589Y63472D01*
X261300Y191420D02*
X261550Y191670D01*
X261300Y179420D02*
Y191420D01*
Y191670D02*
X284800D01*
Y179170D02*
Y191670D01*
X261300Y179170D02*
X284800D01*
X233330Y206060D02*
X233580Y205810D01*
X221330Y206060D02*
X233330D01*
X233580Y182560D02*
Y206060D01*
X221080Y182560D02*
X233580D01*
X221080D02*
Y206060D01*
X175330Y199490D02*
X175580Y199740D01*
Y211740D01*
X152080Y199490D02*
X175580D01*
X152080D02*
Y211990D01*
X175580D01*
X261300Y210470D02*
X261550Y210720D01*
X261300Y198470D02*
Y210470D01*
Y210720D02*
X284800D01*
Y198220D02*
Y210720D01*
X261300Y198220D02*
X284800D01*
X219390Y105060D02*
X219640Y105310D01*
X219390Y93060D02*
Y105060D01*
Y105310D02*
X242890D01*
Y92810D02*
Y105310D01*
X219390Y92810D02*
X242890D01*
D14*
X182560Y135990D02*
X206060D01*
Y148490D01*
X182560D02*
X206060D01*
X182560Y136240D02*
Y148240D01*
X182810Y148490D01*
X110590Y59370D02*
Y82870D01*
Y59370D02*
X123090D01*
Y82870D01*
X110840D02*
X122840D01*
X123090Y82620D01*
X355280Y21490D02*
X378780D01*
X355280Y8990D02*
Y21490D01*
Y8990D02*
X378780D01*
Y9240D02*
Y21240D01*
X378530Y8990D02*
X378780Y9240D01*
X370520Y34390D02*
X394020D01*
X394020Y46890D01*
X370520D02*
X394020D01*
X370520Y34640D02*
Y46640D01*
X370770Y46890D01*
X138110Y135990D02*
X161610D01*
Y148490D01*
X138110D02*
X161610D01*
X138110Y136240D02*
Y148240D01*
X138360Y148490D01*
X152470Y54710D02*
X152720Y54960D01*
Y66960D01*
X129220Y54710D02*
X152720D01*
X129220D02*
Y67210D01*
X152720D01*
X129220Y89820D02*
X129470Y90070D01*
X129220Y77820D02*
Y89820D01*
Y90070D02*
X152720D01*
Y77570D02*
Y90070D01*
X129220Y77570D02*
X152720D01*
X200340Y39020D02*
X200590Y39270D01*
X200340Y27020D02*
Y39020D01*
Y39270D02*
X223840D01*
Y26770D02*
Y39270D01*
X200340Y26770D02*
X223840D01*
X430630Y90100D02*
X430880Y89850D01*
X442880D01*
X430630D02*
Y113350D01*
X443130Y113350D01*
X443130Y89850D01*
X136810Y206060D02*
X137060Y205810D01*
X124810Y206060D02*
X136810D01*
X137060Y182560D02*
Y206060D01*
X124560Y182560D02*
X137060D01*
X124560D02*
Y206060D01*
X83920Y212020D02*
X84170Y211770D01*
X96170D01*
X83920D02*
Y235270D01*
X96420D01*
Y211770D02*
Y235270D01*
X281590Y161610D02*
X281840Y161360D01*
X269590Y161610D02*
X281590D01*
X281840Y138110D02*
Y161610D01*
X269340Y138110D02*
X281840D01*
X269340D02*
Y161610D01*
X175330Y181710D02*
X175580Y181960D01*
Y193960D01*
X152080Y181710D02*
X175580D01*
X152080D02*
Y194210D01*
X175580D01*
D15*
X7530Y156290D02*
X93530D01*
Y93290D02*
Y156290D01*
X7530Y93290D02*
X93530D01*
X7530D02*
Y156290D01*
X219373Y119380D02*
Y139980D01*
Y119380D02*
X245110D01*
Y144780D01*
X219373D02*
X245110D01*
X219373Y139980D02*
Y144780D01*
X23986Y32939D02*
X22653D01*
X23319D01*
Y29606D01*
X22653Y28940D01*
X21986D01*
X21320Y29606D01*
X25319Y28940D02*
Y29606D01*
X25985D01*
Y28940D01*
X25319D01*
X32650D02*
Y32939D01*
X34649D01*
X35315Y32272D01*
Y30939D01*
X34649Y30273D01*
X32650D01*
X33983D02*
X35315Y28940D01*
X37315D02*
X38648D01*
X39314Y29606D01*
Y30939D01*
X38648Y31606D01*
X37315D01*
X36648Y30939D01*
Y29606D01*
X37315Y28940D01*
X40647D02*
Y31606D01*
X42646D01*
X43313Y30939D01*
Y28940D01*
X47312Y32939D02*
Y28940D01*
X45312D01*
X44646Y29606D01*
Y30939D01*
X45312Y31606D01*
X47312D01*
X49311D02*
X50644D01*
X51310Y30939D01*
Y28940D01*
X49311D01*
X48644Y29606D01*
X49311Y30273D01*
X51310D01*
X21320Y36560D02*
Y40559D01*
X22653Y39226D01*
X23986Y40559D01*
Y36560D01*
X25319D02*
Y37226D01*
X25985D01*
Y36560D01*
X25319D01*
X32650Y40559D02*
Y36560D01*
X34649D01*
X35315Y37226D01*
Y37893D01*
X34649Y38559D01*
X32650D01*
X34649D01*
X35315Y39226D01*
Y39892D01*
X34649Y40559D01*
X32650D01*
X37315Y36560D02*
X38648D01*
X39314Y37226D01*
Y38559D01*
X38648Y39226D01*
X37315D01*
X36648Y38559D01*
Y37226D01*
X37315Y36560D01*
X40647Y39226D02*
Y36560D01*
Y37893D01*
X41314Y38559D01*
X41980Y39226D01*
X42646D01*
X44646Y36560D02*
Y40559D01*
Y37893D02*
X46645Y39226D01*
X44646Y37893D02*
X46645Y36560D01*
X49311D02*
X50644D01*
X51310Y37226D01*
Y38559D01*
X50644Y39226D01*
X49311D01*
X48644Y38559D01*
Y37226D01*
X49311Y36560D01*
X52643Y39226D02*
Y37226D01*
X53310Y36560D01*
X53976Y37226D01*
X54643Y36560D01*
X55309Y37226D01*
Y39226D01*
X56642Y36560D02*
X58641D01*
X59308Y37226D01*
X58641Y37893D01*
X57308D01*
X56642Y38559D01*
X57308Y39226D01*
X59308D01*
X60641Y36560D02*
Y40559D01*
Y37893D02*
X62640Y39226D01*
X60641Y37893D02*
X62640Y36560D01*
X64639D02*
X65972D01*
X65306D01*
Y39226D01*
X64639D01*
X21320Y22653D02*
Y26652D01*
X22653Y25319D01*
X23986Y26652D01*
Y22653D01*
X25319D02*
Y23319D01*
X25985D01*
Y22653D01*
X25319D01*
X32650D02*
Y26652D01*
X34649D01*
X35315Y25985D01*
Y24652D01*
X34649Y23986D01*
X32650D01*
X33983D02*
X35315Y22653D01*
X37315D02*
X38648D01*
X39314Y23319D01*
Y24652D01*
X38648Y25319D01*
X37315D01*
X36648Y24652D01*
Y23319D01*
X37315Y22653D01*
X40647D02*
X42646D01*
X43313Y23319D01*
X42646Y23986D01*
X41314D01*
X40647Y24652D01*
X41314Y25319D01*
X43313D01*
X44646D02*
X47312D01*
X44646Y22653D01*
X47312D01*
X51310Y25319D02*
X49311D01*
X48644Y24652D01*
Y23319D01*
X49311Y22653D01*
X51310D01*
X52643Y25319D02*
X55309D01*
X52643Y22653D01*
X55309D01*
X56642Y25319D02*
Y23319D01*
X57308Y22653D01*
X59308D01*
Y21986D01*
X58641Y21320D01*
X57975D01*
X59308Y22653D02*
Y25319D01*
X60641Y22653D02*
Y26652D01*
Y23986D02*
X62640Y25319D01*
X60641Y23986D02*
X62640Y22653D01*
X22716Y20239D02*
Y16240D01*
X20716D01*
X20050Y16906D01*
Y18239D01*
X20716Y18906D01*
X22716D01*
X24049D02*
Y16240D01*
Y17573D01*
X24715Y18239D01*
X25382Y18906D01*
X26048D01*
X32046Y16240D02*
X33379D01*
X32713D01*
Y18906D01*
X32046D01*
X35378Y16240D02*
Y18906D01*
X37378D01*
X38044Y18239D01*
Y16240D01*
X39377Y18906D02*
X42043D01*
X39377Y16240D01*
X42043D01*
X43376D02*
Y16906D01*
X44042D01*
Y16240D01*
X43376D01*
X53373Y20239D02*
X52040D01*
X52706D01*
Y16906D01*
X52040Y16240D01*
X51373D01*
X50707Y16906D01*
X54705Y16240D02*
Y16906D01*
X55372D01*
Y16240D01*
X54705D01*
X62036Y20239D02*
Y16240D01*
Y17573D01*
X64702Y20239D01*
X62703Y18239D01*
X64702Y16240D01*
X66701D02*
X68034D01*
X68701Y16906D01*
Y18239D01*
X68034Y18906D01*
X66701D01*
X66035Y18239D01*
Y16906D01*
X66701Y16240D01*
X70034D02*
X71367D01*
X70700D01*
Y20239D01*
X70034D01*
X74032Y18906D02*
X75365D01*
X76032Y18239D01*
Y16240D01*
X74032D01*
X73366Y16906D01*
X74032Y17573D01*
X76032D01*
X77365Y16240D02*
Y20239D01*
Y17573D02*
X79364Y18906D01*
X77365Y17573D02*
X79364Y16240D01*
X82030D02*
X83363D01*
X84029Y16906D01*
Y18239D01*
X83363Y18906D01*
X82030D01*
X81363Y18239D01*
Y16906D01*
X82030Y16240D01*
X85362Y18906D02*
Y16906D01*
X86028Y16240D01*
X86695Y16906D01*
X87361Y16240D01*
X88028Y16906D01*
Y18906D01*
X89361Y16240D02*
X91360D01*
X92027Y16906D01*
X91360Y17573D01*
X90027D01*
X89361Y18239D01*
X90027Y18906D01*
X92027D01*
X93359Y16240D02*
Y20239D01*
Y17573D02*
X95359Y18906D01*
X93359Y17573D02*
X95359Y16240D01*
X97358D02*
X98691D01*
X98025D01*
Y18906D01*
X97358D01*
X20050Y7350D02*
Y13348D01*
X23049D01*
X24049Y12348D01*
Y10349D01*
X23049Y9349D01*
X20050D01*
X26048Y13348D02*
Y7350D01*
X29047D01*
X30047Y8350D01*
Y9349D01*
X29047Y10349D01*
X26048D01*
X29047D01*
X30047Y11349D01*
Y12348D01*
X29047Y13348D01*
X26048D01*
X32046D02*
Y7350D01*
X36045D01*
X41043D02*
Y13348D01*
X38044Y10349D01*
X42043D01*
X54039Y7350D02*
X50040D01*
X54039Y11349D01*
Y12348D01*
X53039Y13348D01*
X51040D01*
X50040Y12348D01*
X56038D02*
X57038Y13348D01*
X59037D01*
X60037Y12348D01*
Y8350D01*
X59037Y7350D01*
X57038D01*
X56038Y8350D01*
Y12348D01*
X66035Y7350D02*
X62036D01*
X66035Y11349D01*
Y12348D01*
X65035Y13348D01*
X63036D01*
X62036Y12348D01*
X68035D02*
X69034Y13348D01*
X71034D01*
X72033Y12348D01*
Y11349D01*
X71034Y10349D01*
X70034D01*
X71034D01*
X72033Y9349D01*
Y8350D01*
X71034Y7350D01*
X69034D01*
X68035Y8350D01*
X74033Y13348D02*
Y7350D01*
X78031D01*
X17510Y55862D02*
X20176D01*
Y55195D01*
X17510Y52529D01*
Y51863D01*
X20176D01*
X23508D02*
X22175D01*
X21509Y52529D01*
Y53862D01*
X22175Y54529D01*
X23508D01*
X24174Y53862D01*
Y53196D01*
X21509D01*
X25507Y51863D02*
X27507D01*
X28173Y52529D01*
X27507Y53196D01*
X26174D01*
X25507Y53862D01*
X26174Y54529D01*
X28173D01*
X29506Y50530D02*
Y54529D01*
X31505D01*
X32172Y53862D01*
Y52529D01*
X31505Y51863D01*
X29506D01*
X34171D02*
X35504D01*
X36171Y52529D01*
Y53862D01*
X35504Y54529D01*
X34171D01*
X33505Y53862D01*
Y52529D01*
X34171Y51863D01*
X37503D02*
X38836D01*
X38170D01*
Y55862D01*
X37503D01*
X40836Y54529D02*
X41502D01*
Y53862D01*
X40836D01*
Y54529D01*
Y52529D02*
X41502D01*
Y51863D01*
X40836D01*
Y52529D01*
X50833Y55195D02*
X50166Y55862D01*
X48833D01*
X48167Y55195D01*
Y54529D01*
X48833Y53862D01*
X50166D01*
X50833Y53196D01*
Y52529D01*
X50166Y51863D01*
X48833D01*
X48167Y52529D01*
X52165Y54529D02*
Y52529D01*
X52832Y51863D01*
X53498Y52529D01*
X54165Y51863D01*
X54831Y52529D01*
Y54529D01*
X58163Y51863D02*
X56831D01*
X56164Y52529D01*
Y53862D01*
X56831Y54529D01*
X58163D01*
X58830Y53862D01*
Y53196D01*
X56164D01*
X62162Y51863D02*
X60829D01*
X60163Y52529D01*
Y53862D01*
X60829Y54529D01*
X62162D01*
X62829Y53862D01*
Y53196D01*
X60163D01*
X64828Y55195D02*
Y54529D01*
X64162D01*
X65494D01*
X64828D01*
Y52529D01*
X65494Y51863D01*
X71492Y55862D02*
Y51863D01*
X73492D01*
X74158Y52529D01*
Y55195D01*
X73492Y55862D01*
X71492D01*
X75491Y54529D02*
Y51863D01*
Y53196D01*
X76158Y53862D01*
X76824Y54529D01*
X77491D01*
X81489Y51863D02*
X80156D01*
X79490Y52529D01*
Y53862D01*
X80156Y54529D01*
X81489D01*
X82156Y53862D01*
Y53196D01*
X79490D01*
X84155Y54529D02*
X85488D01*
X86154Y53862D01*
Y51863D01*
X84155D01*
X83489Y52529D01*
X84155Y53196D01*
X86154D01*
X87487Y51863D02*
Y54529D01*
X88154D01*
X88820Y53862D01*
Y51863D01*
Y53862D01*
X89487Y54529D01*
X90153Y53862D01*
Y51863D01*
X91486D02*
X93485D01*
X94152Y52529D01*
X93485Y53196D01*
X92152D01*
X91486Y53862D01*
X92152Y54529D01*
X94152D01*
X21320Y44243D02*
Y48242D01*
X23986Y44243D01*
Y48242D01*
X25319Y44243D02*
Y44909D01*
X25985D01*
Y44243D01*
X25319D01*
X32650Y48242D02*
Y44243D01*
Y45576D01*
X35315Y48242D01*
X33316Y46242D01*
X35315Y44243D01*
X36648Y46909D02*
Y44243D01*
Y45576D01*
X37315Y46242D01*
X37981Y46909D01*
X38648D01*
X40647D02*
X43313D01*
X40647Y44243D01*
X43313D01*
X44646Y46909D02*
Y44909D01*
X45312Y44243D01*
X47312D01*
Y43576D01*
X46645Y42910D01*
X45979D01*
X47312Y44243D02*
Y46909D01*
X48644Y44243D02*
Y48242D01*
Y45576D02*
X50644Y46909D01*
X48644Y45576D02*
X50644Y44243D01*
X53310Y46909D02*
X54643D01*
X55309Y46242D01*
Y44243D01*
X53310D01*
X52643Y44909D01*
X53310Y45576D01*
X55309D01*
X56642Y44243D02*
X57975D01*
X57308D01*
Y48242D01*
X56642D01*
X60641Y46909D02*
X61973D01*
X62640Y46242D01*
Y44243D01*
X60641D01*
X59974Y44909D01*
X60641Y45576D01*
X62640D01*
X242111Y196580D02*
X238112D01*
X236113Y198579D01*
X238112Y200579D01*
X242111D01*
X239112D01*
Y196580D01*
X242111Y202578D02*
X238112D01*
Y205577D01*
X239112Y206577D01*
X242111D01*
X238112Y209576D02*
Y211575D01*
X239112Y212575D01*
X242111D01*
Y209576D01*
X241111Y208576D01*
X240111Y209576D01*
Y212575D01*
X242111Y214574D02*
Y216574D01*
Y215574D01*
X236113D01*
Y214574D01*
X242111Y220572D02*
Y222572D01*
X241111Y223571D01*
X239112D01*
X238112Y222572D01*
Y220572D01*
X239112Y219573D01*
X241111D01*
X242111Y220572D01*
X244110Y227570D02*
Y228570D01*
X243110Y229569D01*
X238112D01*
Y226570D01*
X239112Y225571D01*
X241111D01*
X242111Y226570D01*
Y229569D01*
X329282Y195310D02*
Y198642D01*
X330115D01*
X333447Y195310D01*
X334280D01*
Y198642D01*
X330948Y201141D02*
Y202808D01*
X331781Y203641D01*
X334280D01*
Y201141D01*
X333447Y200308D01*
X332614Y201141D01*
Y203641D01*
X334280Y205307D02*
Y207806D01*
X333447Y208639D01*
X332614Y207806D01*
Y206140D01*
X331781Y205307D01*
X330948Y206140D01*
Y208639D01*
X334280Y210305D02*
Y211971D01*
Y211138D01*
X330948D01*
Y210305D01*
X334280Y214470D02*
Y216136D01*
Y215303D01*
X329282D01*
Y214470D01*
X330948Y219469D02*
Y221135D01*
X331781Y221968D01*
X334280D01*
Y219469D01*
X333447Y218636D01*
X332614Y219469D01*
Y221968D01*
X334280Y223634D02*
X330948D01*
Y226133D01*
X331781Y226966D01*
X334280D01*
Y228633D02*
Y230299D01*
Y229466D01*
X330948D01*
Y228633D01*
X334280Y235297D02*
Y233631D01*
X333447Y232798D01*
X331781D01*
X330948Y233631D01*
Y235297D01*
X331781Y236130D01*
X332614D01*
Y232798D01*
X414112Y144504D02*
X414112Y145682D01*
X412934Y146861D01*
X411756Y146861D01*
X409399Y144504D01*
Y143326D01*
X410578Y142148D01*
X411756D01*
X415290Y143326D02*
X416468Y143326D01*
X417646Y142148D01*
Y140970D01*
X415290Y138614D01*
X414112D01*
X412934Y139792D01*
Y140970D01*
X415290Y143326D01*
X419413Y140381D02*
X421770Y138025D01*
X421181Y137436D01*
X416468D01*
X415879Y136847D01*
X359686Y191862D02*
X358507Y191862D01*
X357329Y190684D01*
X357329Y189506D01*
X359686Y187149D01*
X360864D01*
X362042Y188328D01*
Y189506D01*
X360864Y193040D02*
X360864Y194218D01*
X362042Y195396D01*
X363220D01*
X365576Y193040D01*
Y191862D01*
X364398Y190684D01*
X363220D01*
X360864Y193040D01*
X366754Y194218D02*
X367933D01*
X369111Y195396D01*
Y196574D01*
X366754Y198931D01*
X365576D01*
X364398Y197752D01*
Y196574D01*
X364987Y195985D01*
X366165D01*
X367933Y197752D01*
X227849Y151089D02*
Y146924D01*
X228682Y146091D01*
X230348D01*
X231181Y146924D01*
Y151089D01*
X236179Y146091D02*
X232847D01*
X236179Y149423D01*
Y150256D01*
X235346Y151089D01*
X233680D01*
X232847Y150256D01*
X237845Y146091D02*
X239511D01*
X238678D01*
Y151089D01*
X237845Y150256D01*
X296751Y140995D02*
X293271Y144583D01*
X295627Y144547D01*
X295662Y146903D01*
X299143Y143316D01*
X299830Y149786D02*
X298652Y149804D01*
X297456Y148643D01*
X297438Y147465D01*
X299759Y145074D01*
X300937Y145056D01*
X302132Y146216D01*
X302150Y147394D01*
X300445Y151544D02*
X303346Y148554D01*
X304524Y148537D01*
X305720Y149697D01*
X305737Y150875D01*
X302837Y153864D01*
X307513Y151437D02*
X308709Y152597D01*
X308111Y152017D01*
X304631Y155605D01*
X304613Y154427D01*
X193045Y214439D02*
Y210274D01*
X193878Y209441D01*
X195544D01*
X196377Y210274D01*
Y214439D01*
X198043Y209441D02*
X199709D01*
X198876D01*
Y214439D01*
X198043Y213606D01*
X202209Y209441D02*
X203875D01*
X203042D01*
Y214439D01*
X202209Y213606D01*
X326349Y197601D02*
X322184D01*
X321351Y196768D01*
Y195102D01*
X322184Y194269D01*
X326349D01*
X325516Y192603D02*
X326349Y191770D01*
Y190104D01*
X325516Y189271D01*
X322184D01*
X321351Y190104D01*
Y191770D01*
X322184Y192603D01*
X325516D01*
X321351Y187605D02*
Y185938D01*
Y186772D01*
X326349D01*
X325516Y187605D01*
X148272Y151180D02*
X148279Y156178D01*
X150778Y156175D01*
X151610Y155341D01*
X151608Y153675D01*
X150774Y152843D01*
X148274Y152846D01*
X149941Y152844D02*
X151604Y151175D01*
X153276Y155338D02*
X154110Y156170D01*
X155777Y156168D01*
X156608Y155334D01*
X156607Y154501D01*
X155773Y153669D01*
X154940Y153670D01*
X155773Y153669D01*
X156605Y152835D01*
X156604Y152002D01*
X155770Y151170D01*
X154103Y151172D01*
X153272Y152006D01*
X161608Y156160D02*
X158276Y156165D01*
X158272Y153665D01*
X159939Y154496D01*
X160773Y154495D01*
X161604Y153661D01*
X161602Y151995D01*
X160768Y151163D01*
X159102Y151165D01*
X158270Y151999D01*
X228641Y39685D02*
X233639D01*
Y37185D01*
X232806Y36352D01*
X231140D01*
X230307Y37185D01*
Y39685D01*
Y38018D02*
X228641Y36352D01*
X232806Y34686D02*
X233639Y33853D01*
Y32187D01*
X232806Y31354D01*
X231973D01*
X231140Y32187D01*
Y33020D01*
Y32187D01*
X230307Y31354D01*
X229474D01*
X228641Y32187D01*
Y33853D01*
X229474Y34686D01*
X228641Y27189D02*
X233639D01*
X231140Y29688D01*
Y26356D01*
X157560Y67585D02*
X162558D01*
Y65086D01*
X161725Y64253D01*
X160059D01*
X159226Y65086D01*
Y67585D01*
Y65919D02*
X157560Y64253D01*
X161725Y62587D02*
X162558Y61754D01*
Y60088D01*
X161725Y59255D01*
X160892D01*
X160059Y60088D01*
Y60921D01*
Y60088D01*
X159226Y59255D01*
X158393D01*
X157560Y60088D01*
Y61754D01*
X158393Y62587D01*
X161725Y57589D02*
X162558Y56755D01*
Y55089D01*
X161725Y54256D01*
X160892D01*
X160059Y55089D01*
Y55922D01*
Y55089D01*
X159226Y54256D01*
X158393D01*
X157560Y55089D01*
Y56755D01*
X158393Y57589D01*
X156671Y91755D02*
X161670D01*
Y89255D01*
X160836Y88422D01*
X159170D01*
X158337Y89255D01*
Y91755D01*
Y90088D02*
X156671Y88422D01*
X160836Y86756D02*
X161670Y85923D01*
Y84257D01*
X160836Y83424D01*
X160003D01*
X159170Y84257D01*
Y85090D01*
Y84257D01*
X158337Y83424D01*
X157504D01*
X156671Y84257D01*
Y85923D01*
X157504Y86756D01*
X156671Y78425D02*
Y81758D01*
X160003Y78425D01*
X160836D01*
X161670Y79258D01*
Y80925D01*
X160836Y81758D01*
X108460Y50861D02*
X108477Y55859D01*
X110976Y55851D01*
X111806Y55015D01*
X111801Y53348D01*
X110965Y52518D01*
X108466Y52527D01*
X110132Y52521D02*
X111792Y50849D01*
X113473Y55009D02*
X114309Y55839D01*
X115975Y55834D01*
X116805Y54998D01*
X116802Y54165D01*
X115966Y53334D01*
X115133Y53337D01*
X115966Y53334D01*
X116796Y52498D01*
X116793Y51665D01*
X115958Y50835D01*
X114291Y50841D01*
X113461Y51677D01*
X118457Y50827D02*
X120123Y50821D01*
X119290Y50824D01*
X119307Y55822D01*
X118471Y54992D01*
X269759Y130851D02*
Y135849D01*
X272258D01*
X273091Y135016D01*
Y133350D01*
X272258Y132517D01*
X269759D01*
X271425D02*
X273091Y130851D01*
X278089D02*
X274757D01*
X278089Y134183D01*
Y135016D01*
X277256Y135849D01*
X275590D01*
X274757Y135016D01*
X279755Y130851D02*
X281421D01*
X280588D01*
Y135849D01*
X279755Y135016D01*
X208321Y153984D02*
X213319D01*
Y151485D01*
X212486Y150652D01*
X210820D01*
X209987Y151485D01*
Y153984D01*
Y152318D02*
X208321Y150652D01*
Y145654D02*
Y148986D01*
X211653Y145654D01*
X212486D01*
X213319Y146487D01*
Y148153D01*
X212486Y148986D01*
Y143988D02*
X213319Y143155D01*
Y141489D01*
X212486Y140655D01*
X209154D01*
X208321Y141489D01*
Y143155D01*
X209154Y143988D01*
X212486D01*
X148969Y181712D02*
X143971D01*
Y184211D01*
X144804Y185044D01*
X146470D01*
X147303Y184211D01*
Y181712D01*
Y183378D02*
X148969Y185044D01*
Y186710D02*
Y188377D01*
Y187544D01*
X143971D01*
X144804Y186710D01*
X148969Y193375D02*
X143971D01*
X146470Y190876D01*
Y194208D01*
X120514Y186755D02*
X115516Y186831D01*
X115554Y189330D01*
X116400Y190150D01*
X118066Y190125D01*
X118886Y189279D01*
X118848Y186780D01*
X118873Y188446D02*
X120565Y190087D01*
X120590Y191753D02*
X120615Y193419D01*
X120603Y192586D01*
X115605Y192661D01*
X116425Y191816D01*
X116488Y195981D02*
X115668Y196826D01*
X115693Y198492D01*
X116539Y199313D01*
X117372Y199300D01*
X118192Y198454D01*
X118180Y197621D01*
X118192Y198454D01*
X119038Y199275D01*
X119871Y199262D01*
X120691Y198416D01*
X120666Y196751D01*
X119820Y195930D01*
X83922Y237531D02*
Y242529D01*
X86421D01*
X87254Y241696D01*
Y240030D01*
X86421Y239197D01*
X83922D01*
X85588D02*
X87254Y237531D01*
X88920D02*
X90587D01*
X89754D01*
Y242529D01*
X88920Y241696D01*
X96418Y237531D02*
X93086D01*
X96418Y240863D01*
Y241696D01*
X95585Y242529D01*
X93919D01*
X93086Y241696D01*
X151089Y225725D02*
X146091D01*
Y228224D01*
X146924Y229057D01*
X148590D01*
X149423Y228224D01*
Y225725D01*
Y227391D02*
X151089Y229057D01*
Y230723D02*
Y232390D01*
Y231556D01*
X146091D01*
X146924Y230723D01*
X151089Y234889D02*
Y236555D01*
Y235722D01*
X146091D01*
X146924Y234889D01*
X340159Y17538D02*
X339945Y22532D01*
X342442Y22639D01*
X343310Y21842D01*
X343381Y20178D01*
X342584Y19310D01*
X340087Y19203D01*
X341752Y19274D02*
X343488Y17681D01*
X344974Y21913D02*
X345771Y22781D01*
X347435Y22852D01*
X348303Y22056D01*
X348446Y18727D01*
X347649Y17859D01*
X345985Y17787D01*
X345117Y18584D01*
X344974Y21913D01*
X349968Y22127D02*
X350765Y22995D01*
X352429Y23066D01*
X353297Y22269D01*
X353333Y21437D01*
X352536Y20569D01*
X351704Y20534D01*
X352536Y20569D01*
X353404Y19773D01*
X353440Y18940D01*
X352643Y18072D01*
X350978Y18001D01*
X350110Y18798D01*
X355264Y39469D02*
X355308Y44467D01*
X357807Y44446D01*
X358633Y43605D01*
X358618Y41939D01*
X357778Y41113D01*
X355279Y41135D01*
X356945Y41121D02*
X358596Y39440D01*
X360299Y43591D02*
X361139Y44416D01*
X362805Y44402D01*
X363631Y43562D01*
X363601Y40229D01*
X362761Y39404D01*
X361095Y39418D01*
X360269Y40258D01*
X360299Y43591D01*
X368592Y39353D02*
X365260Y39382D01*
X368621Y42685D01*
X368629Y43518D01*
X367803Y44358D01*
X366137Y44373D01*
X365297Y43547D01*
X427865Y97003D02*
X422867Y97075D01*
X422903Y99574D01*
X423748Y100395D01*
X425414Y100371D01*
X426235Y99526D01*
X426199Y97027D01*
X426223Y98693D02*
X427913Y100335D01*
X423772Y102061D02*
X422951Y102906D01*
X422975Y104572D01*
X423820Y105393D01*
X427152Y105345D01*
X427973Y104500D01*
X427949Y102834D01*
X427104Y102013D01*
X423772Y102061D01*
X428009Y106999D02*
X428033Y108665D01*
X428021Y107832D01*
X423023Y107904D01*
X423844Y107059D01*
X70477Y168836D02*
X70424Y173834D01*
X72108Y172186D01*
X73756Y173869D01*
X73809Y168871D01*
X77921Y173914D02*
X76255Y173896D01*
X75431Y173054D01*
X75467Y169722D01*
X76308Y168898D01*
X77975Y168916D01*
X78799Y169757D01*
X78763Y173090D01*
X77921Y173914D01*
X80420Y173940D02*
X80474Y168942D01*
X82973Y168969D01*
X83797Y169811D01*
X83761Y173143D01*
X82920Y173967D01*
X80420Y173940D01*
X85427Y173160D02*
X86251Y174002D01*
X87918Y174020D01*
X88759Y173196D01*
X88768Y172363D01*
X87944Y171521D01*
X87111Y171512D01*
X87944Y171521D01*
X88786Y170697D01*
X88795Y169864D01*
X87971Y169022D01*
X86305Y169004D01*
X85463Y169828D01*
X90470Y169048D02*
X92136Y169066D01*
X91303Y169057D01*
X91250Y174055D01*
X90425Y173214D01*
X171491Y59649D02*
X169825D01*
X170658D01*
Y55484D01*
X169825Y54651D01*
X168992D01*
X168159Y55484D01*
X173157Y58816D02*
X173990Y59649D01*
X175656D01*
X176489Y58816D01*
Y57983D01*
X175656Y57150D01*
X174823D01*
X175656D01*
X176489Y56317D01*
Y55484D01*
X175656Y54651D01*
X173990D01*
X173157Y55484D01*
X178155Y54651D02*
X179821D01*
X178988D01*
Y59649D01*
X178155Y58816D01*
X438770Y61670D02*
Y60004D01*
Y60837D01*
X442935D01*
X443768Y60004D01*
Y59171D01*
X442935Y58338D01*
X439603Y63336D02*
X438770Y64169D01*
Y65835D01*
X439603Y66668D01*
X442935D01*
X443768Y65835D01*
Y64169D01*
X442935Y63336D01*
X439603D01*
X443768Y68334D02*
Y70001D01*
Y69168D01*
X438770D01*
X439603Y68334D01*
X128832Y246347D02*
X130498Y246346D01*
X129665Y246346D01*
X129660Y241348D01*
X128827Y241349D01*
X130493Y241347D01*
X136329Y245507D02*
X135496Y246341D01*
X133830Y246342D01*
X132996Y245510D01*
X132993Y242178D01*
X133825Y241344D01*
X135491Y241342D01*
X136325Y242175D01*
X137991Y241340D02*
X139657Y241338D01*
X138824Y241339D01*
X138829Y246338D01*
X137995Y245505D01*
X145488Y241333D02*
X142156Y241336D01*
X145492Y244665D01*
X145492Y245498D01*
X144660Y246332D01*
X142994Y246334D01*
X142160Y245501D01*
X78798Y79136D02*
X77965Y79969D01*
X76298D01*
X75465Y79136D01*
Y75804D01*
X76298Y74971D01*
X77965D01*
X78798Y75804D01*
X80464Y79136D02*
X81297Y79969D01*
X82963D01*
X83796Y79136D01*
Y78303D01*
X82963Y77470D01*
X82130D01*
X82963D01*
X83796Y76637D01*
Y75804D01*
X82963Y74971D01*
X81297D01*
X80464Y75804D01*
X85462Y79136D02*
X86295Y79969D01*
X87961D01*
X88794Y79136D01*
Y78303D01*
X87961Y77470D01*
X87128D01*
X87961D01*
X88794Y76637D01*
Y75804D01*
X87961Y74971D01*
X86295D01*
X85462Y75804D01*
X115925Y104952D02*
X116748Y105795D01*
X116728Y107462D01*
X115885Y108284D01*
X112552Y108244D01*
X111730Y107400D01*
X111750Y105734D01*
X112593Y104912D01*
X115946Y103286D02*
X116789Y102464D01*
X116809Y100798D01*
X115986Y99954D01*
X115153Y99944D01*
X114310Y100767D01*
X114300Y101600D01*
X114310Y100767D01*
X113487Y99924D01*
X112654Y99914D01*
X111811Y100736D01*
X111791Y102402D01*
X112614Y103246D01*
X111883Y94905D02*
X111842Y98237D01*
X115215Y94946D01*
X116048Y94956D01*
X116870Y95800D01*
X116850Y97465D01*
X116007Y98288D01*
X115913Y137154D02*
X116728Y138004D01*
X116693Y139670D01*
X115843Y140485D01*
X112512Y140415D01*
X111696Y139565D01*
X111731Y137899D01*
X112582Y137084D01*
X115948Y135488D02*
X116799Y134673D01*
X116834Y133007D01*
X116018Y132156D01*
X115185Y132139D01*
X114335Y132954D01*
X114318Y133787D01*
X114335Y132954D01*
X113520Y132104D01*
X112687Y132086D01*
X111837Y132902D01*
X111801Y134567D01*
X112617Y135418D01*
X111889Y130403D02*
X111924Y128737D01*
X111907Y129570D01*
X116904Y129675D01*
X116053Y130491D01*
X255748Y135016D02*
X254915Y135849D01*
X253249D01*
X252416Y135016D01*
Y131684D01*
X253249Y130851D01*
X254915D01*
X255748Y131684D01*
X260746Y130851D02*
X257414D01*
X260746Y134183D01*
Y135016D01*
X259913Y135849D01*
X258247D01*
X257414Y135016D01*
X262412D02*
X263245Y135849D01*
X264911D01*
X265744Y135016D01*
Y134183D01*
X264911Y133350D01*
X264078D01*
X264911D01*
X265744Y132517D01*
Y131684D01*
X264911Y130851D01*
X263245D01*
X262412Y131684D01*
X248128Y108346D02*
X247295Y109179D01*
X245629D01*
X244795Y108346D01*
Y105014D01*
X245629Y104181D01*
X247295D01*
X248128Y105014D01*
X253126Y104181D02*
X249794D01*
X253126Y107513D01*
Y108346D01*
X252293Y109179D01*
X250627D01*
X249794Y108346D01*
X258125Y104181D02*
X254792D01*
X258125Y107513D01*
Y108346D01*
X257291Y109179D01*
X255625D01*
X254792Y108346D01*
X208676Y77429D02*
X209509Y78262D01*
Y79928D01*
X208676Y80761D01*
X205344D01*
X204511Y79928D01*
Y78262D01*
X205344Y77429D01*
X204511Y72431D02*
Y75763D01*
X207843Y72431D01*
X208676D01*
X209509Y73264D01*
Y74930D01*
X208676Y75763D01*
X204511Y70765D02*
Y69099D01*
Y69932D01*
X209509D01*
X208676Y70765D01*
X212486Y129062D02*
X213319Y129895D01*
Y131561D01*
X212486Y132395D01*
X209154D01*
X208321Y131561D01*
Y129895D01*
X209154Y129062D01*
X208321Y124064D02*
Y127396D01*
X211653Y124064D01*
X212486D01*
X213319Y124897D01*
Y126563D01*
X212486Y127396D01*
Y122398D02*
X213319Y121565D01*
Y119899D01*
X212486Y119066D01*
X209154D01*
X208321Y119899D01*
Y121565D01*
X209154Y122398D01*
X212486D01*
X140594Y215026D02*
X139761Y215859D01*
X138095D01*
X137262Y215026D01*
Y211694D01*
X138095Y210861D01*
X139761D01*
X140594Y211694D01*
X142260Y210861D02*
X143926D01*
X143094D01*
Y215859D01*
X142260Y215026D01*
X149758Y210861D02*
X146426D01*
X149758Y214193D01*
Y215026D01*
X148925Y215859D01*
X147259D01*
X146426Y215026D01*
X223967Y213743D02*
X223129Y214571D01*
X221462Y214560D01*
X220635Y213722D01*
X220656Y210390D01*
X221494Y209562D01*
X223160Y209572D01*
X223988Y210411D01*
X225659Y209588D02*
X227325Y209599D01*
X226492Y209594D01*
X226461Y214592D01*
X225633Y213753D01*
X229825Y209615D02*
X231491Y209625D01*
X230658Y209620D01*
X230626Y214618D01*
X229798Y213780D01*
X398410Y181889D02*
X397560Y182704D01*
X395894Y182668D01*
X395079Y181817D01*
X395151Y178486D01*
X396002Y177671D01*
X397667Y177707D01*
X398482Y178557D01*
X400076Y181925D02*
X400891Y182776D01*
X402557Y182812D01*
X403408Y181997D01*
X403479Y178665D01*
X402664Y177815D01*
X400999Y177778D01*
X400148Y178593D01*
X400076Y181925D01*
X405163Y177868D02*
X406829Y177904D01*
X405996Y177886D01*
X405888Y182883D01*
X405073Y182033D01*
X409238Y182122D02*
X410053Y182973D01*
X411718Y183009D01*
X412569Y182194D01*
X412641Y178863D01*
X411826Y178012D01*
X410160Y177976D01*
X409310Y178791D01*
X409238Y182122D01*
X247742Y91164D02*
X247742Y92343D01*
X246564Y93521D01*
X245386Y93521D01*
X243029Y91164D01*
Y89986D01*
X244207Y88808D01*
X245386D01*
X248920Y89986D02*
X250098Y89986D01*
X251276Y88808D01*
Y87630D01*
X248920Y85274D01*
X247742D01*
X246564Y86452D01*
Y87630D01*
X248920Y89986D01*
X252454Y86452D02*
X253633D01*
X254811Y85274D01*
Y84096D01*
X254222Y83507D01*
X253043D01*
Y82328D01*
X252454Y81739D01*
X251276D01*
X250098Y82917D01*
Y84096D01*
X250687Y84685D01*
X251865D01*
Y85863D01*
X252454Y86452D01*
X251865Y84685D02*
X253043Y83507D01*
X347065Y180353D02*
X345887Y180353D01*
X344709Y179175D01*
X344709Y177997D01*
X347065Y175640D01*
X348243D01*
X349421Y176818D01*
Y177997D01*
X348243Y181531D02*
X348243Y182709D01*
X349421Y183887D01*
X350599D01*
X352955Y181531D01*
Y180353D01*
X351777Y179175D01*
X350599D01*
X348243Y181531D01*
X353545Y188011D02*
X351188Y185654D01*
X352955Y183887D01*
X353545Y185654D01*
X354133Y186243D01*
X355312D01*
X356490Y185065D01*
Y183887D01*
X355312Y182709D01*
X354133D01*
X426812Y133074D02*
X426812Y134253D01*
X425634Y135431D01*
X424456Y135431D01*
X422099Y133074D01*
Y131896D01*
X423278Y130718D01*
X424456D01*
X427990Y131896D02*
X429168Y131896D01*
X430346Y130718D01*
Y129540D01*
X427990Y127184D01*
X426812D01*
X425634Y128362D01*
Y129540D01*
X427990Y131896D01*
X430346Y123649D02*
X433881Y127184D01*
X430346D01*
X432702Y124827D01*
X237766Y77562D02*
X236588Y77562D01*
X235409Y76384D01*
X235409Y75206D01*
X237766Y72849D01*
X238944D01*
X240122Y74028D01*
Y75206D01*
X238944Y78740D02*
X238944Y79918D01*
X240122Y81096D01*
X241300D01*
X243656Y78740D01*
Y77562D01*
X242478Y76384D01*
X241300D01*
X238944Y78740D01*
X242478Y82274D02*
Y83453D01*
X243656Y84631D01*
X244834D01*
X245423Y84042D01*
Y82863D01*
X244834Y82274D01*
X245423Y82863D01*
X246602D01*
X247191Y82274D01*
Y81096D01*
X246012Y79918D01*
X244834D01*
X291226Y188752D02*
X292059Y189585D01*
Y191251D01*
X291226Y192085D01*
X287894D01*
X287061Y191251D01*
Y189585D01*
X287894Y188752D01*
X291226Y187086D02*
X292059Y186253D01*
Y184587D01*
X291226Y183754D01*
X287894D01*
X287061Y184587D01*
Y186253D01*
X287894Y187086D01*
X291226D01*
X287061Y178755D02*
Y182088D01*
X290393Y178755D01*
X291226D01*
X292059Y179589D01*
Y181255D01*
X291226Y182088D01*
Y206969D02*
X292059Y207802D01*
Y209468D01*
X291226Y210301D01*
X287894D01*
X287061Y209468D01*
Y207802D01*
X287894Y206969D01*
X291226Y205303D02*
X292059Y204470D01*
Y202804D01*
X291226Y201971D01*
X287894D01*
X287061Y202804D01*
Y204470D01*
X287894Y205303D01*
X291226D01*
X287061Y200305D02*
Y198639D01*
Y199472D01*
X292059D01*
X291226Y200305D01*
X256581Y224496D02*
X261579D01*
Y226995D01*
X260746Y227828D01*
X259913D01*
X259080Y226995D01*
Y224496D01*
Y226995D01*
X258247Y227828D01*
X257414D01*
X256581Y226995D01*
Y224496D01*
X258247Y230327D02*
Y231993D01*
X259080Y232826D01*
X261579D01*
Y230327D01*
X260746Y229494D01*
X259913Y230327D01*
Y232826D01*
X257414Y235326D02*
X258247D01*
Y234493D01*
Y236159D01*
Y235326D01*
X260746D01*
X261579Y236159D01*
Y238658D02*
Y240324D01*
Y239491D01*
X256581D01*
X257414Y238658D01*
D16*
X215900Y139700D02*
Y139980D01*
X74930Y210820D02*
Y247650D01*
Y210820D02*
X113030Y172720D01*
X229870D01*
X247650Y190500D01*
Y232410D01*
X232410Y247650D02*
X247650Y232410D01*
X74930Y247650D02*
X232410D01*
X247650D02*
X332740D01*
X340360Y240030D01*
Y195580D02*
Y240030D01*
X316230Y171450D02*
X340360Y195580D01*
X262890Y171450D02*
X316230D01*
X247650Y186690D02*
X262890Y171450D01*
X247650Y186690D02*
Y247650D01*
M02*
