M48
;Layer_Color=9474304
;FILE_FORMAT=4:4
METRIC,LZ
;TYPE=PLATED
T1F00S00C0.2500
T2F00S00C0.8000
T3F00S00C0.9000
T4F00S00C1.0000
;TYPE=NON_PLATED
T5F00S00C2.0000
%
T01
X000127Y0002794
Y0006096
X0004191
X0003175Y0008763
X0002032
X0001016
X000508Y0009017
X0008128Y000889
X0009017
X0011261Y0009144
X0012411Y00091636
X00123486Y00110517
X00117787Y0012319
X00121541Y00143131
X0010033Y0014224
X00074153Y0013754
X00068382Y0013275
X0006261Y0013754
X0005461
X0005715Y00123792
X0007366Y0012125
Y0006731
X0009779Y0006096
X0010541Y000381
X0008763Y0003429
X0006985Y000254
X0012446Y0005334
X0012954Y0007239
X0016383Y0006858
X0017526Y0006223
X00190012Y0003877
X0021717Y0005655
X0024638Y00059951
X00256335Y00089105
X0024865Y00098222
X0023114Y0008636
X0021557Y0009906
X0020859Y00094614
X00192764Y00097939
X0019177Y0011049
X0020574Y001143
X00218438Y00120257
X00227402Y00112958
X0023241Y0013208
X0024892
X0021082Y0013462
X001778Y0014097
X0016585Y0014224
X001778Y0012573
X00177481Y00105091
X00157215Y00107457
X0015367Y0012446
X00193407Y00083453
X00254Y0002286
X0028321Y0002159
X00279963Y0004418
X0028702Y0005334
X00293983Y00050555
X0026924Y0006055
X0027178Y0011684
X0030099Y0010287
X0030226Y0009398
X0032385Y0008255
X0033782Y0009779
X0034925Y0011049
X0033528Y0012319
X0032639Y0012192
X0029718Y0014097
X0037084Y0014351
X0039243Y0011684
X0038989Y0007239
X0038735Y0005969
Y0002159
X0034671Y0000889
X003302Y0003556
X0034036Y0006731
X0034925Y0007747
X0043053Y0013589
X0044069Y0000889
X0042164Y0014478
X0040894Y001651
X004318Y0017907
X0043434Y0021463
X0041402Y0020066
X0038608Y0021336
X0037084Y0020066
X0036703Y0018288
X0035814Y0017399
X003302Y0016002
X0031369Y0016129
X0029337
X0027559Y0016764
X00291153Y0018542
X003048Y0019431
X0031369
X0036322Y002286
X00254Y002032
X0025527Y0018542
X0026035Y0016764
X002286Y001651
X0022733Y001778
X0021209Y0016383
X0019812Y0018796
Y0019558
X0017653Y0017907
X0016637Y0015748
X0014351Y0016256
X0013335Y0015748
X0009906Y0015561
X0008636Y0018415
X0009017Y0020574
X0010414Y0020193
X001016Y0021971
X0005842Y0021209
Y0022987
X0003937Y0022098
X0004064Y0020066
X0004445Y0018161
X0006223Y0017526
X0006096Y001905
X0005715Y0016129
X0004953Y0016256
X0003175Y0016383
X0002286
X0001016
X0002159Y0018923
Y0021082
X0011811Y0017907
X0014224Y0019685
X0014605Y0020574
X0022352Y0022987
T02
X0012573Y000254
X0013843
X0015113
X0016383
X0017653
Y000381
X0016383
X0015113
X0013843
X0012573
X0040894Y0003556
X0040894Y0004826
X0042164
X0042164Y0003556
X0042164Y0002286
X0040894Y0002286
Y0006096
X0040894Y0007366
X0042164
X0042164Y0006096
T03
X002794Y0023114
X003048
X0019304Y0022987
X0016764
T04
X0038862Y0023876
T05
X0043053Y0023241
X0002159
M30
